<svg xmlns="http://www.w3.org/2000/svg" width="24" height="24" viewBox="0 0 24 24">
    <g fill="none" fill-rule="evenodd">
        <g>
            <g transform="translate(-151 -212) translate(151 212)">
                <circle cx="12" cy="12" r="12" fill="#A9559A" fill-rule="nonzero"/>
                <g fill="#FFF">
                    <path d="M12.552 12.185L8.655 2.542c-.22-.499-.546-.742-.977-.742h-.345c-.43 0-.757.243-.977.742L4.66 6.743H3.377c-.383.003-.695.32-.698.714v.01c.003.392.315.71.698.714h.69l-1.62 4.004c-.03.088-.047.179-.047.273 0 .225.068.402.19.538.122.137.297.204.517.204.145-.003.285-.049.4-.137.126-.088.212-.216.28-.362L5.57 8.178h1.236c.383-.003.695-.32.698-.714v-.019c-.003-.392-.315-.711-.698-.714h-.66l1.36-3.469 3.708 9.436c.068.146.154.274.279.362.116.088.258.134.4.137.22 0 .393-.067.518-.204.124-.137.19-.313.19-.538.003-.091-.012-.185-.048-.27z" transform="translate(4.8 4.8)"/>
                </g>
            </g>
        </g>
    </g>
</svg>
