<svg xmlns="http://www.w3.org/2000/svg" width="24" height="24" style=""><rect id="backgroundrect" width="100%" height="100%" x="0" y="0" fill="none" stroke="none"/>
	
<g class="currentLayer" style=""><title>Layer 1</title><path fill="#015add" fill-opacity="1" stroke="none" stroke-opacity="1" stroke-width="1" stroke-dasharray="none" stroke-linejoin="miter" stroke-linecap="butt" stroke-dashoffset="" fill-rule="nonzero" opacity="1" marker-start="" marker-mid="" marker-end="" d="M0,12 C0,5.370165745856354 5.370165745856354,0 12,0 C18.629834254143645,0 24,5.370165745856354 24,12 C24,18.629834254143645 18.629834254143645,24 12,24 C5.370165745856354,24 0,18.629834254143645 0,12 Z" id="svg_2" class=""/><path fill="#ffffff" d="M5.8430508045969045,12.069876158353363 l0.5059973798736214,3.6280675909758466 c2.1869685894824737,-1.5280078757799131 3.9441660901770232,-2.702893062295161 5.639656593326008,-3.9538673689262023 c1.9561118221943656,-1.4425805454680893 3.8116775366233124,-3.011053998764129 5.797916892913453,-4.413168966716091 c1.4388619898271413,-1.0161356131827488 2.0581098593137974,-0.7899434106567059 2.165189649172275,0.9137611606633161 c0.16116415829547243,2.5686995231818504 0.07259646770066312,5.154692028208199 0.013793328863126002,7.732038042312299 c-0.030490516434278553,1.3332889002108574 -0.7078155600814645,1.7839440070784969 -1.9793426918585777,0.9818955091306414 c-1.2541039795289541,-0.7916727088411545 -2.5361575991226633,-1.5494511732670921 -3.7314584398140798,-2.415483704039591 c-0.3829463671209984,-0.27737942878576116 -0.5277763201838206,-0.8532357242075711 -0.7818639571361409,-1.2924774630578395 c0.5651635010496612,0.13177252165508066 1.19893066407645,0.15148652095780954 1.6802452449318466,0.41987359918443157 c0.8573642835448306,0.47797801818194735 1.6225310531098196,1.1067508380479227 2.5844342501436044,1.7846357263522754 c1.2315990745417487,-2.0917590839105737 1.1038292913885817,-4.037565401053579 0.5168868500287208,-5.977492104369453 c-0.04609875698992112,-0.15217824023158938 -1.2163538163246093,-0.26804121858973123 -1.5673577376573151,-0.019713999302728668 c-2.420366233140106,1.7130427815160503 -4.752527758023906,3.5381440853844524 -7.132602951590143,5.304449250981558 c-1.0914878918794688,0.8100032695963235 -2.1807978897279177,1.642833275227385 -3.3721059246957976,2.297891427496999 c-0.3223283165909453,0.17708013408766796 -1.3346860586766902,-0.12035915363771166 -1.484597764478559,-0.43578314248136923 c-0.8185251733249768,-1.7199599742538498 -0.5176128147057275,-7.98347799833131 0.5183387793827332,-10.219806410461894 l6.102096092579232,3.731825482042839 l-0.15680837023343236,0.6329231355086566 h-2.13724000910752 c-0.7695225576270287,0.4530761243258687 -1.6533845518826005,0.974632456755951 -2.5728188153114977,1.2734551830288914 c0.5749640241892515,-0.9020019330090576 1.1851373352133243,-1.5816161194978595 1.9564748045328686,-2.4407314575325594 c-0.6315892689957685,-0.24556034219188344 -1.2384957389733113,-0.6896441159586133 -1.7452190835239396,-0.6028333470992282 c-0.3248691929604682,0.05533754190239622 -0.5920241940989076,0.8732955831471899 -0.7208829242675839,1.3868971439288031 c-0.13539241226173676,0.5381575950008025 -0.07404839705467638,1.1205852235235216 -0.09873119607290205,1.6836447123804055 z" id="svg_1" class="selected" fill-opacity="1"/></g></svg>