<svg xmlns="http://www.w3.org/2000/svg" xmlns:se="http://svg-edit.googlecode.com" xmlns:xlink="http://www.w3.org/1999/xlink" xmlns:dc="http://purl.org/dc/elements/1.1/" xmlns:cc="http://creativecommons.org/ns#" xmlns:rdf="http://www.w3.org/1999/02/22-rdf-syntax-ns#" xmlns:inkscape="http://www.inkscape.org/namespaces/inkscape" width="24" height="24" style="">
                                    <title>my vector image</title>
                                    <!-- Created with Vector Paint - http://www.vectorpaint.yaks.com/ https://chrome.google.com/webstore/detail/hnbpdiengicdefcjecjbnjnoifekhgdo -->
                                    <rect id="backgroundrect" width="100%" height="100%" x="0" y="0" fill="#ffffff" stroke="none" class="" style="" fill-opacity="1" opacity="0"/>
                                <g style="" class="currentLayer"><title>Layer 1</title><path fill="#1f2944" fill-opacity="1" stroke="none" stroke-opacity="1" stroke-width="1" stroke-dasharray="none" stroke-linejoin="miter" stroke-linecap="butt" stroke-dashoffset="" fill-rule="nonzero" opacity="1" marker-start="" marker-mid="" marker-end="" d="M0,12 C0,5.370165745856354 5.370165745856354,0 12,0 C18.629834254143645,0 24,5.370165745856354 24,12 C24,18.629834254143645 18.629834254143645,24 12,24 C5.370165745856354,24 0,18.629834254143645 0,12 Z" id="svg_19" class="selected"/><rect fill="#ffffff" stroke-dashoffset="" fill-rule="nonzero" id="svg_1" x="5.224489688873291" y="4.959183216094971" width="2" height="2" style="color: rgb(31, 41, 68);" class="" fill-opacity="1"/><rect fill="#ffffff" stroke-dashoffset="" fill-rule="nonzero" x="5.224489688873291" y="9.040816307067871" width="2" height="2" style="color: rgb(31, 41, 68);" class="" id="svg_8" fill-opacity="1"/><rect fill="#ffffff" stroke-dashoffset="" fill-rule="nonzero" x="9.22449016571045" y="9.122448921203613" width="2" height="2" style="color: rgb(31, 41, 68);" class="" id="svg_18" fill-opacity="1"/><rect fill="#ffffff" stroke-dashoffset="" fill-rule="nonzero" x="5.142857074737549" y="13.285715103149414" width="2" height="2" style="color: rgb(31, 41, 68);" class="" id="svg_9" fill-opacity="1"/><rect fill="#ffffff" stroke-dashoffset="" fill-rule="nonzero" id="svg_3" x="9.26530647277832" y="4.8775506019592285" width="2" height="2" style="color: rgb(31, 41, 68);" class="" fill-opacity="1"/><rect fill="#ffffff" stroke-dashoffset="" fill-rule="nonzero" id="svg_5" x="13.387755393981934" y="4.8775506019592285" width="2" height="2" style="color: rgb(31, 41, 68);" class="" fill-opacity="1"/><path fill="#ffffff" fill-opacity="1" stroke="none" stroke-opacity="1" stroke-width="1" stroke-dasharray="none" stroke-linejoin="miter" stroke-linecap="butt" stroke-dashoffset="" fill-rule="nonzero" opacity="1" marker-start="" marker-mid="" marker-end="" d="M9.653061226010323,10.051020368933678 C9.653061226010323,9.774777275011026 9.87681813208767,9.551020368933678 10.153061226010323,9.551020368933678 C10.429304319932974,9.551020368933678 10.653061226010323,9.774777275011026 10.653061226010323,10.051020368933678 C10.653061226010323,10.32726346285633 10.429304319932974,10.551020368933678 10.153061226010323,10.551020368933678 C9.87681813208767,10.551020368933678 9.653061226010323,10.32726346285633 9.653061226010323,10.051020368933678 z" id="svg_10" class=""/><path fill="#ffffff" fill-opacity="1" stroke="none" stroke-opacity="1" stroke-width="1" stroke-dasharray="none" stroke-linejoin="miter" stroke-linecap="butt" stroke-dashoffset="" fill-rule="nonzero" opacity="1" marker-start="" marker-mid="" marker-end="" d="M13.897959068417551,9.969387866556646 C13.897959068417551,9.693144772633993 14.121715974494897,9.469387866556644 14.397959068417551,9.469387866556644 C14.674202162340201,9.469387866556644 14.897959068417551,9.693144772633993 14.897959068417551,9.969387866556646 C14.897959068417551,10.245630960479296 14.674202162340201,10.469387866556644 14.397959068417551,10.469387866556644 C14.121715974494897,10.469387866556644 13.897959068417551,10.245630960479296 13.897959068417551,9.969387866556646 z" class="" id="svg_2"/><path fill="#ffffff" fill-opacity="1" stroke="none" stroke-opacity="1" stroke-width="1" stroke-dasharray="none" stroke-linejoin="miter" stroke-linecap="butt" stroke-dashoffset="" fill-rule="nonzero" opacity="1" marker-start="" marker-mid="" marker-end="" d="M17.97959168255329,5.887757122516634 C17.97959168255329,5.61151402859398 18.20334858863064,5.387757122516633 18.47959168255329,5.387757122516633 C18.755834776475943,5.387757122516633 18.97959168255329,5.61151402859398 18.97959168255329,5.887757122516634 C18.97959168255329,6.164000216439284 18.755834776475943,6.387757122516633 18.47959168255329,6.387757122516633 C18.20334858863064,6.387757122516633 17.97959168255329,6.164000216439284 17.97959168255329,5.887757122516634 z" class="" id="svg_4"/><path fill="#ffffff" fill-opacity="1" stroke="none" stroke-opacity="1" stroke-width="1" stroke-dasharray="none" stroke-linejoin="miter" stroke-linecap="butt" stroke-dashoffset="" fill-rule="nonzero" opacity="1" marker-start="" marker-mid="" marker-end="" d="M13.979591682553291,14.37755273282528 C13.979591682553291,14.101309638902627 14.20334858863064,13.87755273282528 14.479591682553291,13.87755273282528 C14.755834776475943,13.87755273282528 14.979591682553291,14.101309638902627 14.979591682553291,14.37755273282528 C14.979591682553291,14.653795826747931 14.755834776475943,14.87755273282528 14.479591682553291,14.87755273282528 C14.20334858863064,14.87755273282528 13.979591682553291,14.653795826747931 13.979591682553291,14.37755273282528 z" class="" id="svg_7"/><path fill="#ffffff" fill-opacity="1" stroke="none" stroke-opacity="1" stroke-width="1" stroke-dasharray="none" stroke-linejoin="miter" stroke-linecap="butt" stroke-dashoffset="" fill-rule="nonzero" opacity="1" marker-start="" marker-mid="" marker-end="" d="M18.061224296689034,14.214289411902428 C18.061224296689034,13.938046317979776 18.28498120276638,13.714289411902428 18.561224296689034,13.714289411902428 C18.837467390611685,13.714289411902428 19.061224296689034,13.938046317979776 19.061224296689034,14.214289411902428 C19.061224296689034,14.49053250582508 18.837467390611685,14.714289411902428 18.561224296689034,14.714289411902428 C18.28498120276638,14.714289411902428 18.061224296689034,14.49053250582508 18.061224296689034,14.214289411902428 z" class="" id="svg_11"/><path fill="#ffffff" fill-opacity="1" stroke="none" stroke-opacity="1" stroke-width="1" stroke-dasharray="none" stroke-linejoin="miter" stroke-linecap="butt" stroke-dashoffset="" fill-rule="nonzero" opacity="1" marker-start="" marker-mid="" marker-end="" d="M9.653061226010323,18.622452482581142 C9.653061226010323,18.346209388658487 9.87681813208767,18.12245248258114 10.153061226010323,18.12245248258114 C10.429304319932974,18.12245248258114 10.653061226010323,18.346209388658487 10.653061226010323,18.622452482581142 C10.653061226010323,18.89869557650379 10.429304319932974,19.12245248258114 10.153061226010323,19.12245248258114 C9.87681813208767,19.12245248258114 9.653061226010323,18.89869557650379 9.653061226010323,18.622452482581142 z" class="" id="svg_13"/><path fill="#ffffff" fill-opacity="1" stroke="none" stroke-opacity="1" stroke-width="1" stroke-dasharray="none" stroke-linejoin="miter" stroke-linecap="butt" stroke-dashoffset="" fill-rule="nonzero" opacity="1" marker-start="" marker-mid="" marker-end="" d="M13.979591682553291,18.622452482581142 C13.979591682553291,18.346209388658487 14.20334858863064,18.12245248258114 14.479591682553291,18.12245248258114 C14.755834776475943,18.12245248258114 14.979591682553291,18.346209388658487 14.979591682553291,18.622452482581142 C14.979591682553291,18.89869557650379 14.755834776475943,19.12245248258114 14.479591682553291,19.12245248258114 C14.20334858863064,19.12245248258114 13.979591682553291,18.89869557650379 13.979591682553291,18.622452482581142 z" class="" id="svg_15"/><path fill="#ffffff" fill-opacity="1" stroke="none" stroke-opacity="1" stroke-width="1" stroke-dasharray="none" stroke-linejoin="miter" stroke-linecap="butt" stroke-dashoffset="" fill-rule="nonzero" opacity="1" marker-start="" marker-mid="" marker-end="" d="M18.061224296689034,18.540819868445396 C18.061224296689034,18.264576774522745 18.28498120276638,18.040819868445396 18.561224296689034,18.040819868445396 C18.837467390611685,18.040819868445396 19.061224296689034,18.264576774522745 19.061224296689034,18.540819868445396 C19.061224296689034,18.81706296236805 18.837467390611685,19.040819868445396 18.561224296689034,19.040819868445396 C18.28498120276638,19.040819868445396 18.061224296689034,18.81706296236805 18.061224296689034,18.540819868445396 z" class="" id="svg_17"/><path fill="#ffffff" fill-opacity="1" stroke="none" stroke-opacity="1" stroke-width="1" stroke-dasharray="none" stroke-linejoin="miter" stroke-linecap="butt" stroke-dashoffset="" fill-rule="nonzero" opacity="1" marker-start="" marker-mid="" marker-end="" d="M17.97959168255329,9.887757048010826 C17.97959168255329,9.611513954088174 18.20334858863064,9.387757048010826 18.47959168255329,9.387757048010826 C18.755834776475943,9.387757048010826 18.97959168255329,9.611513954088174 18.97959168255329,9.887757048010826 C18.97959168255329,10.164000141933478 18.755834776475943,10.387757048010826 18.47959168255329,10.387757048010826 C18.20334858863064,10.387757048010826 17.97959168255329,10.164000141933478 17.97959168255329,9.887757048010826 z" class="" id="svg_6"/><path fill="#ffffff" fill-opacity="1" stroke="none" stroke-opacity="1" stroke-width="1" stroke-dasharray="none" stroke-linejoin="miter" stroke-linecap="butt" stroke-dashoffset="" fill-rule="nonzero" opacity="1" marker-start="" marker-mid="" marker-end="" d="M9.571428582072258,14.37755124270916 C9.571428582072258,14.101308148786508 9.795185488149606,13.877551242709162 10.071428582072258,13.877551242709162 C10.34767167599491,13.877551242709162 10.571428582072258,14.101308148786508 10.571428582072258,14.37755124270916 C10.571428582072258,14.653794336631812 10.34767167599491,14.877551242709162 10.071428582072258,14.877551242709162 C9.795185488149606,14.877551242709162 9.571428582072258,14.653794336631812 9.571428582072258,14.37755124270916 z" id="svg_12" class=""/><path fill="#ffffff" fill-opacity="1" stroke="none" stroke-opacity="1" stroke-width="1" stroke-dasharray="none" stroke-linejoin="miter" stroke-linecap="butt" stroke-dashoffset="" fill-rule="nonzero" opacity="1" marker-start="" marker-mid="" marker-end="" d="M5.653061285614967,18.70408169925213 C5.653061285614967,18.427838605329477 5.8768181916923155,18.20408169925213 6.153061285614967,18.20408169925213 C6.429304379537618,18.20408169925213 6.653061285614967,18.427838605329477 6.653061285614967,18.70408169925213 C6.653061285614967,18.98032479317478 6.429304379537618,19.20408169925213 6.153061285614967,19.20408169925213 C5.8768181916923155,19.20408169925213 5.653061285614967,18.98032479317478 5.653061285614967,18.70408169925213 z" id="svg_14" class=""/><path fill="#a0a0a0" fill-opacity="1" stroke="none" stroke-opacity="1" stroke-width="1" stroke-dasharray="none" stroke-linejoin="miter" stroke-linecap="butt" stroke-dashoffset="" fill-rule="nonzero" opacity="1" marker-start="" marker-mid="" marker-end="" d="M9.16326530277729,8.489795908331871 C9.16326530277729,8.489795908331871 9.16326530277729,8.489795908331871 9.16326530277729,8.489795908331871 C9.16326530277729,8.489795908331871 9.16326530277729,8.489795908331871 9.16326530277729,8.489795908331871 C9.16326530277729,8.489795908331871 9.16326530277729,8.489795908331871 9.16326530277729,8.489795908331871 C9.16326530277729,8.489795908331871 9.16326530277729,8.489795908331871 9.16326530277729,8.489795908331871 z" id="svg_16" class=""/></g></svg>