<svg width="24" height="24" viewBox="0 0 24 24" fill="none" xmlns="http://www.w3.org/2000/svg">
<circle cx="12" cy="12" r="12" fill="#DCEBFF"/>
<path d="M4.70312 13.0703H3.28906V12.0117H4.70312C4.89583 12.0117 5.05208 11.9792 5.17188 11.9141C5.29167 11.849 5.37891 11.7591 5.43359 11.6445C5.49089 11.5273 5.51953 11.3958 5.51953 11.25C5.51953 11.0938 5.49089 10.9492 5.43359 10.8164C5.37891 10.6836 5.29167 10.5768 5.17188 10.4961C5.05208 10.4128 4.89583 10.3711 4.70312 10.3711H3.80469V15H2.43359V9.3125H4.70312C5.15885 9.3125 5.55078 9.39583 5.87891 9.5625C6.20964 9.72917 6.46354 9.95833 6.64062 10.25C6.81771 10.5391 6.90625 10.8698 6.90625 11.2422C6.90625 11.6094 6.81771 11.9297 6.64062 12.2031C6.46354 12.4766 6.20964 12.6901 5.87891 12.8438C5.55078 12.9948 5.15885 13.0703 4.70312 13.0703Z" fill="#D50A99"/>
<path d="M11.6423 13.9453V15H8.76734V13.9453H11.6423ZM9.25562 9.3125V15H7.88453V9.3125H9.25562Z" fill="#A60DD0"/>
<path d="M14.8706 10.5078L13.4839 15H12.0112L14.1011 9.3125H15.0347L14.8706 10.5078ZM16.0191 15L14.6284 10.5078L14.4487 9.3125H15.3941L17.4956 15H16.0191ZM15.9644 12.8789V13.9375H13.0464V12.8789H15.9644Z" fill="#7349FF"/>
<path d="M19.1848 9.3125L20.2317 11.7812L21.2825 9.3125H22.7591L20.9309 12.957V15H19.5364V12.957L17.7044 9.3125H19.1848Z" fill="#2FCBFF"/>
</svg>
