<svg width="24" height="24" viewBox="0 0 24 24" fill="none" xmlns="http://www.w3.org/2000/svg">
<circle cx="12" cy="12" r="12" fill="#F6F5F6"/>
<g clip-path="url(#clip0_552_121233)">
<path fill-rule="evenodd" clip-rule="evenodd" d="M7.40533 15.1484C7.44992 15.1028 7.50413 15.0666 7.56442 15.0424C7.62392 15.0148 7.68916 15.0003 7.75533 14.9999H18.7517C18.7983 15.0008 18.8436 15.0145 18.8821 15.0393C18.9215 15.0629 18.9516 15.098 18.9681 15.1393C18.987 15.1792 18.9936 15.2233 18.9871 15.2666C18.979 15.3106 18.958 15.3515 18.9267 15.3848L16.5944 17.8515C16.5498 17.8971 16.4956 17.9332 16.4353 17.9575C16.3758 17.9851 16.3106 17.9996 16.2444 17.9999H5.24169C5.19507 17.9994 5.14967 17.9857 5.11124 17.9605C5.07187 17.9363 5.04088 17.9015 5.02215 17.8605C5.00413 17.8205 4.99861 17.7763 5.00623 17.7333C5.01315 17.6889 5.03426 17.6476 5.06669 17.6151L7.40533 15.1484ZM18.9362 13.106C18.9687 13.1385 18.9898 13.1798 18.9967 13.2242C19.0041 13.2682 18.9986 13.3133 18.9808 13.3545C18.961 13.394 18.9301 13.4275 18.8917 13.4514C18.8539 13.4779 18.8081 13.4917 18.7612 13.4908H7.76169C7.69552 13.4905 7.63028 13.476 7.57078 13.4484C7.50968 13.4241 7.45526 13.3868 7.41169 13.3393L5.06351 10.8848C5.03108 10.8522 5.00997 10.811 5.00306 10.7666C4.99569 10.7226 5.00119 10.6775 5.01896 10.6363C5.03946 10.5964 5.07008 10.562 5.10805 10.5363C5.14676 10.5121 5.19219 10.4994 5.23851 10.4999H16.2381C16.3042 10.5003 16.3695 10.5148 16.429 10.5424C16.4893 10.5666 16.5435 10.6028 16.5881 10.6484L18.9362 13.106ZM7.40533 6.1363C7.44992 6.09067 7.50413 6.05452 7.56442 6.03024C7.62392 6.00267 7.68916 5.98817 7.75533 5.98781H18.7581C18.8044 5.98727 18.8498 5.99994 18.8885 6.02418C18.9265 6.04993 18.9571 6.0843 18.9776 6.12418C18.9938 6.16576 18.9993 6.21046 18.9935 6.25448C18.9853 6.29847 18.9644 6.33941 18.9331 6.37266L16.5944 8.82721C16.5509 8.87469 16.4964 8.912 16.4353 8.9363C16.3758 8.96386 16.3106 8.97836 16.2444 8.97873H5.24169C5.19507 8.97819 5.14967 8.96447 5.11124 8.93933C5.07187 8.91506 5.04088 8.88027 5.02215 8.83933C5.00413 8.79923 4.99861 8.75506 5.00623 8.71206C5.01315 8.66768 5.03426 8.62641 5.06669 8.59387L7.40533 6.1363Z" fill="#BABABA"/>
</g>
<defs>
<clipPath id="clip0_552_121233">
<rect width="14" height="12" fill="white" transform="translate(4.99988 6)"/>
</clipPath>
</defs>
</svg>
