<svg width="24" height="24" viewBox="0 0 24 24" fill="none" xmlns="http://www.w3.org/2000/svg">
<circle cx="12" cy="12" r="12" fill="black"/>
<path fill-rule="evenodd" clip-rule="evenodd" d="M7.40539 15.1606C7.44998 15.115 7.5042 15.0789 7.56448 15.0546C7.62398 15.027 7.68922 15.0125 7.75539 15.0121H18.7518C18.7983 15.013 18.8436 15.0267 18.8822 15.0515C18.9215 15.0751 18.9517 15.1102 18.9681 15.1515C18.987 15.1914 18.9937 15.2355 18.9872 15.2788C18.979 15.3228 18.9581 15.3637 18.9268 15.397L16.5945 17.8637C16.5499 17.9093 16.4957 17.9454 16.4354 17.9697C16.3759 17.9973 16.3106 18.0118 16.2445 18.0121H5.24176C5.19513 18.0116 5.14973 17.9979 5.1113 17.9728C5.07193 17.9485 5.04094 17.9137 5.02221 17.8728C5.0042 17.8327 4.99867 17.7885 5.00629 17.7455C5.01321 17.7011 5.03432 17.6598 5.06675 17.6273L7.40539 15.1606ZM18.9363 13.1182C18.9687 13.1507 18.9898 13.192 18.9968 13.2364C19.0041 13.2804 18.9986 13.3255 18.9808 13.3667C18.961 13.4062 18.9302 13.4397 18.8918 13.4637C18.854 13.4901 18.8081 13.5039 18.7613 13.5031H7.76175C7.69558 13.5027 7.63034 13.4882 7.57084 13.4606C7.50974 13.4363 7.45532 13.399 7.41175 13.3515L5.06357 10.897C5.03114 10.8645 5.01003 10.8232 5.00312 10.7788C4.99575 10.7348 5.00125 10.6897 5.01902 10.6485C5.03952 10.6086 5.07014 10.5743 5.10811 10.5485C5.14682 10.5243 5.19225 10.5116 5.23857 10.5121H16.2381C16.3043 10.5125 16.3695 10.527 16.429 10.5546C16.4893 10.5789 16.5435 10.615 16.5881 10.6606L18.9363 13.1182ZM7.40539 6.14851C7.44998 6.10287 7.5042 6.06673 7.56448 6.04245C7.62398 6.01488 7.68922 6.00038 7.75539 6.00002H18.7581C18.8044 5.99948 18.8499 6.01215 18.8886 6.03639C18.9265 6.06214 18.9572 6.09651 18.9777 6.13638C18.9939 6.17797 18.9994 6.22266 18.9936 6.26668C18.9854 6.31068 18.9645 6.35162 18.9331 6.38487L16.5945 8.83942C16.5509 8.88689 16.4965 8.92421 16.4354 8.94851C16.3759 8.97607 16.3106 8.99057 16.2445 8.99093H5.24176C5.19513 8.99039 5.14973 8.97668 5.1113 8.95154C5.07193 8.92727 5.04094 8.89248 5.02221 8.85153C5.0042 8.81144 4.99867 8.76727 5.00629 8.72427C5.01321 8.67989 5.03432 8.63862 5.06675 8.60608L7.40539 6.14851Z" fill="url(#paint0_linear_552_121259)"/>
<defs>
<linearGradient id="paint0_linear_552_121259" x1="5.42312" y1="18.2758" x2="17.9325" y2="5.14097" gradientUnits="userSpaceOnUse">
<stop stop-color="#9945FF"/>
<stop offset="0.14" stop-color="#8A53F4"/>
<stop offset="0.42" stop-color="#6377D6"/>
<stop offset="0.79" stop-color="#24B0A7"/>
<stop offset="0.99" stop-color="#00D18C"/>
<stop offset="1" stop-color="#00D18C"/>
</linearGradient>
</defs>
</svg>
