<svg width="40" height="40" viewBox="0 0 40 40" fill="none" xmlns="http://www.w3.org/2000/svg">
    <circle cx="20" cy="20" r="19.5" fill="white" stroke="#E5E5E5" />
    <path fill-rule="evenodd" clip-rule="evenodd"
        d="M19.5716 21.7868L25.9838 15.3746C25.9838 15.3746 26.5232 14.7985 26.3948 14.0741C26.2665 13.3497 25.6053 12.7853 25.6053 12.7853L19.1757 19.2149C19.1757 19.2149 18.7284 19.6828 18.7249 20.4001C18.7215 21.1174 19.5716 21.7868 19.5716 21.7868ZM17.2796 19.4948L23.6918 13.0826C23.6918 13.0826 24.2311 12.5065 24.1028 11.7821C23.9745 11.0576 23.3133 10.4933 23.3133 10.4933L16.8837 16.9229C16.8837 16.9229 16.4364 17.3908 16.4329 18.1081C16.4294 18.8254 17.2796 19.4948 17.2796 19.4948ZM21.3997 10.7905L14.9876 17.2027C14.9876 17.2027 14.1374 16.5333 14.1409 15.816C14.1443 15.0987 14.5916 14.6308 14.5916 14.6308L21.0212 8.20125C21.0212 8.20125 21.6825 8.7656 21.8108 9.49004C21.9391 10.2145 21.3997 10.7905 21.3997 10.7905Z"
        fill="url(#paint0_linear_1275_55423)" />
    <path fill-rule="evenodd" clip-rule="evenodd"
        d="M12.582 30.194C12.918 30.194 13.198 30.117 13.429 29.97C13.625 29.844 13.821 29.627 14.024 29.333L13.457 28.983C13.212 29.347 12.96 29.536 12.708 29.536C12.54 29.536 12.428 29.431 12.372 29.235C12.358 29.207 12.351 29.179 12.351 29.151C12.729 28.955 13.072 28.724 13.366 28.451C14.052 27.807 14.395 27.009 14.395 26.057C14.395 25.763 14.325 25.518 14.199 25.329C14.045 25.105 13.821 25 13.534 25C12.876 25 12.351 25.483 11.966 26.456C11.665 27.198 11.511 27.982 11.497 28.808C11.336 28.864 11.168 28.913 11 28.962L11 28.962V29.613C11.196 29.571 11.385 29.522 11.567 29.466C11.609 29.592 11.665 29.711 11.742 29.809C11.931 30.061 12.211 30.194 12.582 30.194ZM12.33 28.444C12.358 27.94 12.463 27.401 12.652 26.813C12.904 26.022 13.17 25.63 13.457 25.63C13.639 25.63 13.737 25.791 13.737 26.113C13.737 26.89 13.464 27.527 12.918 28.024C12.743 28.178 12.547 28.318 12.33 28.444ZM21.8985 30.091C22.4165 30.091 22.8353 29.9615 23.155 29.7025C23.4747 29.4435 23.6345 29.0923 23.6345 28.649C23.6345 28.4903 23.6158 28.348 23.5785 28.222C23.5412 28.096 23.477 27.984 23.386 27.886C23.295 27.788 23.2098 27.7063 23.1305 27.641C23.0512 27.5757 22.9333 27.5103 22.777 27.445C22.6207 27.3797 22.4993 27.3318 22.413 27.3015C22.3267 27.2712 22.1902 27.2257 22.0035 27.165C21.6302 27.0483 21.3723 26.9375 21.23 26.8325C21.0877 26.7275 21.0165 26.584 21.0165 26.402C21.0165 26.2153 21.0865 26.0672 21.2265 25.9575C21.3665 25.8478 21.5532 25.793 21.7865 25.793C22.2672 25.793 22.6102 26.0217 22.8155 26.479L23.4945 26.087C23.3358 25.751 23.1095 25.4873 22.8155 25.296C22.5215 25.1047 22.1785 25.009 21.7865 25.009C21.3525 25.009 20.9815 25.1362 20.6735 25.3905C20.3655 25.6448 20.2115 25.989 20.2115 26.423C20.2115 26.6423 20.2512 26.8337 20.3305 26.997C20.4098 27.1603 20.53 27.2968 20.691 27.4065C20.852 27.5162 21.0048 27.6013 21.1495 27.662C21.2942 27.7227 21.4832 27.788 21.7165 27.858C22.1318 27.984 22.4212 28.0995 22.5845 28.2045C22.7478 28.3095 22.8295 28.4623 22.8295 28.663C22.8295 28.8543 22.7537 29.0095 22.602 29.1285C22.4503 29.2475 22.2228 29.307 21.9195 29.307C21.3035 29.307 20.8975 29.0317 20.7015 28.481L20.0085 28.887C20.1392 29.2603 20.369 29.5543 20.698 29.769C21.027 29.9837 21.4272 30.091 21.8985 30.091ZM17.4885 30.091C18.0345 30.091 18.4802 29.937 18.8255 29.629C19.1708 29.3163 19.3435 28.8987 19.3435 28.376V25.1H18.5385V28.327C18.5385 28.6257 18.451 28.8637 18.276 29.041C18.101 29.2183 17.8385 29.307 17.4885 29.307C17.1385 29.307 16.876 29.2183 16.701 29.041C16.526 28.8637 16.4385 28.6257 16.4385 28.327V25.1H15.6335V28.376C15.6335 28.8987 15.8062 29.3152 16.1515 29.6255C16.4968 29.9358 16.9425 30.091 17.4885 30.091ZM27.894 29.2895C27.4483 29.7632 26.8895 30 26.2175 30H24.2925V25.1H26.2175C26.8895 25.1 27.4483 25.3357 27.894 25.807C28.3397 26.2783 28.5625 26.8593 28.5625 27.55C28.5625 28.236 28.3397 28.8158 27.894 29.2895ZM26.2175 29.23H25.0975V25.87H26.2175C26.6795 25.87 27.0563 26.0275 27.348 26.3425C27.6397 26.6575 27.7855 27.06 27.7855 27.55C27.7855 28.0353 27.6397 28.4367 27.348 28.754C27.0563 29.0713 26.6795 29.23 26.2175 29.23Z"
        fill="#5A575C" />
    <defs>
        <linearGradient id="paint0_linear_1275_55423" x1="14.7119" y1="16.0142" x2="20.028"
            y2="21.3304" gradientUnits="userSpaceOnUse">
            <stop stop-color="#7EB5FF" />
            <stop offset="0.999683" stop-color="#1A38F8" />
        </linearGradient>
    </defs>
</svg>
    