<svg xmlns="http://www.w3.org/2000/svg" xmlns:xlink="http://www.w3.org/1999/xlink" version="1.1" width="24" enable-background="new 0 0 245 250" xml:space="preserve" height="24"><rect id="backgroundrect" width="100%" height="100%" x="0" y="0" fill="none" stroke="none" class="" style=""/>

















<g class="currentLayer" style=""><title>Layer 1</title><path fill="#EF0701" fill-opacity="1" stroke="none" stroke-opacity="1" stroke-width="1" stroke-dasharray="none" stroke-linejoin="miter" stroke-linecap="butt" stroke-dashoffset="" fill-rule="nonzero" opacity="1" marker-start="" marker-mid="" marker-end="" d="M0,12 C0,5.370165745856354 5.370165745856354,0 12,0 C18.629834254143645,0 24,5.370165745856354 24,12 C24,18.629834254143645 18.629834254143645,24 12,24 C5.370165745856354,24 0,18.629834254143645 0,12 Z" id="svg_18" class="selected"/><path fill="#FEA30A" opacity="1.000000" stroke="none" d="M5.738525443449349,7.549555635432827 C5.669029508603739,6.641991085972986 5.585242428114002,5.7352107044247 5.539081166489291,4.826365915762484 C5.525892507573144,4.566703753550169 5.595444910929748,4.29226059801562 5.673408684460061,4.040073265953471 C5.8148436573607025,3.5825786399381503 6.092678285610873,3.443781604396607 6.512104707130597,3.6466034058731616 C6.888694129391909,3.828710533021451 7.253727340064695,4.0494150060333105 7.592672032769444,4.2988642902736505 C7.874592029302427,4.50634555982023 8.111211035948706,4.78031353055535 8.387788070265684,5.065215613778597 C8.755321182113429,5.499422486685755 9.09767823333291,5.898584155353651 9.45601336930777,6.281599812885938 C9.51306013893483,6.342575767399223 9.65578841864259,6.374247221194811 9.735489735504045,6.346588507519141 C11.318475259852887,5.7972429675604396 12.898195691873777,5.836447322800313 14.481224374769516,6.343440399662891 C14.560607965656654,6.368864532679944 14.699051688856725,6.369135920107549 14.741190705691663,6.318845973956671 C15.10581466791433,5.883693662032236 15.454654660006318,5.434254647588606 15.808195968620007,4.989070793525729 C16.347569216717915,4.463442857516238 16.906806466065483,3.9663829850817693 17.630949953393742,3.733775951183809 C17.85432409617653,3.662024210635239 18.08755736423625,3.6234228244339852 18.333602658763084,3.56556874982217 C18.983194599293927,4.852731242018235 18.66143247720323,6.1203833544360755 18.416937529928525,7.427024451551321 C18.186075016857597,8.197834801289149 17.97286059368912,8.924534113835268 17.779776568724717,9.65696543290487 C17.75367895781092,9.7559606910722 17.807933204725913,9.895311047435097 17.86006503949682,9.996437960370637 C18.46583893099082,11.171497996561733 18.756626196912837,12.425895130655247 18.727890445692168,13.754227568132686 C17.271630473094874,13.509416933951272 16.031344896267953,13.89744829407248 15.00069342816186,14.973319204367879 C14.826402677138397,14.605960677111844 14.687759897495267,14.24716013290589 14.496277482911982,13.921966432724869 C13.768904616129701,12.686672152146228 12.289516077082078,12.209740557233932 11.019470211254584,12.78966118139046 C10.279162629128333,13.127695896484292 9.80687173179489,13.744779341186858 9.441914954579222,14.466990660333321 C9.358477030028505,14.632104743519351 9.281621014499072,14.800810207541414 9.197690950731799,14.976319189335939 C7.928482294823365,13.682702360415435 6.736500356711366,13.514968631845727 5.41245662550477,13.714490025279561 C5.459184680748545,12.642474898257225 5.633436029007051,11.619948566359895 6.0594553633302475,10.675064444948072 C6.33030298523642,10.074339848152503 6.4445945925699295,9.528726826927455 6.1376844795603915,8.908972582057357 C6.000716053864464,8.632387362749053 5.9732584545413125,8.298103313668285 5.8887731280644715,7.992191748426684 C5.84731417132512,7.842073960625059 5.789136713660046,7.696943045206201 5.738525443449349,7.549555635432827 M17.98128896371794,5.195907321050888 C17.84571973152361,4.629006513869621 17.781020259675614,4.598025957817426 17.279773337805008,4.860372684737502 C17.24079741416732,4.880771733364584 17.197896368943134,4.8964011975997614 17.164287325922256,4.924051008836477 C16.594013612494532,5.3931981741637856 16.024962504926094,5.863952435163816 15.455550446945521,6.334229936317526 C15.231950100664218,6.518901102846154 15.244332781953265,6.668966640179123 15.498015162555049,6.8201282731886534 C15.656745181855348,6.91471059236478 15.793369063976055,7.049364775217027 15.966235187606166,7.20195901609571 C16.429860441739166,7.718172280506209 16.89348569587218,8.234385270995514 17.37620178730157,8.771855779148588 C17.789954342448716,7.6437288532987075 18.065019971042155,6.481879077796246 17.98128896371794,5.195907321050888 M8.211524150012243,7.092193176395876 C8.41483273124768,6.934457366137472 8.618140785355836,6.776721761319971 8.875897662240057,6.576742714043425 C8.628268877332713,6.342135849954127 8.433276585685963,6.122834264361361 8.206041564955187,5.949077624955151 C7.681489950228322,5.547975566996032 7.1511274819242745,5.153040981786024 6.603252658995087,4.787798564270167 C6.33427890871555,4.608486460553015 6.224217300215168,4.683777331468968 6.14394694944367,5.011852614179915 C6.1254163825661045,5.087590319051229 6.128470096850597,5.169032295924673 6.084577920538533,5.289946249049114 C5.959195818577604,6.522901311071228 6.327218104550887,7.654853957342617 6.687189773089863,8.800765217017474 C7.205517398225647,8.204179638014413 7.685858451757012,7.651315785699435 8.211524150012243,7.092193176395876 M10.400750534743509,12.000398951866446 C9.736885766241887,11.611231229652468 9.077246186536872,11.213774651966116 8.404001385574432,10.843003956818292 C8.316248199351358,10.794676587575733 8.097072164200618,10.838823713885377 8.044210653477904,10.917075672959172 C7.854727566816379,11.197569405371297 7.973945178679141,11.726184109651005 8.251762345837822,11.913895801485097 C8.883507667150461,12.340747205404421 9.589893026754398,12.526169395379558 10.334923998857626,12.563926761887346 C10.4335326468275,12.568925686802848 10.5345763593156,12.522019968581489 10.693706534120256,12.48560009080661 C10.586415638440302,12.299991908337558 10.510018091871743,12.167827532220805 10.400750534743509,12.000398951866446 M15.577513403627863,10.92064459225691 C15.103000532983344,11.204487901566917 14.620248267443639,11.474739857320609 14.157398153991245,11.777821816579738 C13.920687163632786,11.932823550873707 13.702012294753441,12.134478721965044 13.690570667459673,12.483804948230985 C13.749619730099507,12.508773413334024 13.798869035173501,12.547623793904886 13.84823892061518,12.547789927111896 C14.693233389606565,12.550637406452584 15.47332017147023,12.331659458756063 16.15668601408204,11.797691580970639 C16.206678305071925,11.758629116911692 16.271688452566725,11.69105111366757 16.27026277091879,11.638471460216834 C16.263001658383757,11.370632750223619 16.236165146790576,11.10336722033865 16.21618049928231,10.835901043175648 C16.01907884189192,10.85677240042957 15.821978172865197,10.877644305525882 15.577513403627863,10.92064459225691 M14.32204801043603,10.262131935858415 C14.721868591296582,10.30074879860739 15.122810240122096,10.372269281183966 15.520818030230794,10.357636136828726 C15.637983140206368,10.353328452058118 15.801035339724708,10.122408567303198 15.847547931688503,9.96488278612389 C15.929065004392832,9.688800691577278 15.688687250711087,9.34087098406255 15.373242156178232,9.183850929896325 C15.03318548845428,9.014580161000472 14.722108895450114,9.081710919407437 14.424064536338657,9.409805787484089 C14.209740114878306,9.645737676891752 14.058822187913389,9.906221123338044 14.32204801043603,10.262131935858415 M9.69115141183153,10.31190704711634 C9.772381924962579,10.168227023806647 9.919087182404054,10.025886612119145 9.92183898453293,9.880601068183621 C9.928513404393694,9.52823308396681 9.475486769235216,9.116100493257626 9.121481456824107,9.095093818931554 C8.753534550053358,9.073260108026341 8.347871026741819,9.390606856108777 8.265649646086542,9.764602767930286 C8.192504672572792,10.09731204403978 8.370294824004818,10.377259851502911 8.690043122173261,10.381538295185555 C9.005940623703143,10.385765584084345 9.322377574123891,10.346440292635252 9.69115141183153,10.31190704711634 z" id="svg_2" class=""/><path fill="#FEFDFC" opacity="1.000000" stroke="none" d="M18.727890445692168,13.754227568132686 C18.772102588269533,14.359834536373711 18.575725796794412,14.899607968524482 18.274840155696516,15.399591744314069 C17.381620919411045,16.883862726585008 16.04272320239595,17.78159247780736 14.534529528998052,18.4592146987901 C12.910004265652608,19.18910526178126 11.305305775191934,19.177768827532553 9.693431698599106,18.40123804444188 C8.558001887042991,17.854234736172874 7.498599842261194,17.19449217359225 6.628318154674174,16.254161855148066 C6.282083225651588,15.880060415184762 5.9607584874301445,15.457939356445628 5.725737203601219,15.003172780128361 C5.541500680752453,14.646674132715598 5.507613182740397,14.206250207322372 5.411828223883642,13.773660017329883 C6.736500356711366,13.514968631845727 7.928482294823365,13.682702360415435 9.197690950731799,14.976319189335939 C9.281621014499072,14.800810207541414 9.358477030028505,14.632104743519351 9.441914954579222,14.466990660333321 C9.80687173179489,13.744779341186858 10.279162629128333,13.127695896484292 11.019470211254584,12.78966118139046 C12.289516077082078,12.209740557233932 13.768904616129701,12.686672152146228 14.496277482911982,13.921966432724869 C14.687759897495267,14.24716013290589 14.826402677138397,14.605960677111844 15.00069342816186,14.973319204367879 C16.031344896267953,13.89744829407248 17.271630473094874,13.509416933951272 18.727890445692168,13.754227568132686 M11.996187135147338,16.541897995573265 C11.86253269283555,16.541897995573265 11.728878316414686,16.541897995573265 11.571526273742535,16.541897995573265 C11.691386849117825,16.938876032925496 11.901261327883113,16.651628841839965 12.069484909684403,16.72731285815633 C12.12721944864368,16.802309332263988 12.184953921712045,16.877306833576146 12.237608996209637,16.945705641692147 C12.420213071730787,16.89660560922839 12.490070352334001,16.607034539173455 12.716928279379376,16.7682541477171 C12.723554994220358,16.77296360640588 12.801562189861219,16.66918362970044 12.846189511070728,16.57227818483822 C12.807606692609893,16.5683910375879 12.769022885785398,16.564503958817888 12.68488974622948,16.546968003039822 C12.474277289257572,16.549765217840548 12.263664832285654,16.552562501121578 11.996187135147338,16.541897995573265 M11.010386753785552,16.96678805522966 C11.051376567236394,17.02040114488274 11.09236631479633,17.074014234535827 11.194968479118641,17.208213091875557 C11.194968479118641,16.85134458236427 11.194968479118641,16.596001130250805 11.194968479118641,16.366029560685746 C11.949347856045273,16.366029560685746 12.668118400792885,16.366029560685746 13.403989020733597,16.366029560685746 C13.414935016592525,16.604702237127206 13.426630982803937,16.85970821832388 13.438326026542589,17.11471413104025 C13.467582579526225,17.112443529744017 13.496838144146185,17.11017285996747 13.526093774657069,17.10790225867122 C13.706604034689642,16.76260424907291 13.88711330635854,16.41730514378981 14.092808258728763,16.023828709600735 C13.93135661533696,16.015959364444157 13.865967397429415,16.005520501483257 13.801800785381156,16.01088202958553 C13.500236467896807,16.036081478739355 13.194295544301678,16.10939772021425 12.899645489595239,16.075146065687598 C12.752208315910982,16.058007158687033 12.566537216141258,15.872436640382807 12.505765896861702,15.717466680947883 C12.441959246861913,15.55475700956366 12.43471823105483,15.337387253224652 12.695548128260556,15.218968859180888 C13.12495504611583,15.024013800609518 13.282503707267322,14.640311559592718 13.254283684209446,14.155901436594073 C13.232189670957533,13.776638088602049 13.102114027602438,13.620584565385403 12.731790369769966,13.614947198636049 C12.391451161818326,13.609765431320431 12.05097773408036,13.613501031667571 11.71056565078082,13.614229319654587 C11.427232557763961,13.614835370306684 11.307534798830513,13.772171050174101 11.27375483478571,14.057236390431775 C11.204203222120032,14.644177820351635 11.501152210721946,14.980876073917056 11.967196451990818,15.207208189475713 C12.116271476057417,15.279605973171396 12.21861574335288,15.344518860112863 12.209965650407513,15.551859471123908 C12.194564177016975,15.921043477728329 12.032925535218883,16.113314108552522 11.668286418086618,16.09533303082659 C11.300020335741506,16.07717219231401 10.932878813579656,16.034381386819682 10.530038452253942,15.99931680265562 C10.705942410458915,16.348143533615755 10.850007419084342,16.633833756607938 11.010386753785552,16.96678805522966 z" id="svg_5" class=""/><path fill="#FF8400" opacity="1.000000" stroke="none" d="M8.16619950528838,7.098452275785953 C7.685858451757012,7.651315785699435 7.205517398225647,8.204179638014413 6.687189773089863,8.800765217017474 C6.327218104550887,7.654853957342617 5.959195818577604,6.522901311071228 6.129499642339757,5.2692015803495895 C6.3409706578859915,5.2981753897001695 6.514575023286376,5.330641283452256 6.672867131590139,5.4005543279546195 C7.417295860764034,5.7293460515607375 7.800431610954538,6.406793784739914 8.16619950528838,7.098452275785953 z" id="svg_6" class=""/><path fill="#FF8300" opacity="1.000000" stroke="none" d="M17.98181681580842,5.249188212770267 C18.065019971042155,6.481879077796246 17.789954342448716,7.6437288532987075 17.37620178730157,8.771855779148588 C16.89348569587218,8.234385270995514 16.429860441739166,7.718172280506209 15.953546838379573,7.15839452017568 C16.106722912765868,6.813901291059128 16.234424770150248,6.4793328432938235 16.446655903249308,6.219275207350896 C16.848301332898487,5.7271192776562865 17.279282714079425,5.244506694043745 17.98181681580842,5.249188212770267 z" id="svg_7" class=""/><path fill="#080500" opacity="1.000000" stroke="none" d="M10.417185572968801,12.018031601827648 C10.510018091871743,12.167827532220805 10.586415638440302,12.299991908337558 10.693706534120256,12.48560009080661 C10.5345763593156,12.522019968581489 10.4335326468275,12.568925686802848 10.334923998857626,12.563926761887346 C9.589893026754398,12.526169395379558 8.883507667150461,12.340747205404421 8.251762345837822,11.913895801485097 C7.973945178679141,11.726184109651005 7.854727566816379,11.197569405371297 8.044210653477904,10.917075672959172 C8.097072164200618,10.838823713885377 8.316248199351358,10.794676587575733 8.404001385574432,10.843003956818292 C9.077246186536872,11.213774651966116 9.736885766241887,11.611231229652468 10.417185572968801,12.018031601827648 z" id="svg_8" class=""/><path fill="#070400" opacity="1.000000" stroke="none" d="M15.601194926605874,10.909580367199403 C15.821978172865197,10.877644305525882 16.01907884189192,10.85677240042957 16.216181487645976,10.835901043175648 C16.236165146790576,11.10336722033865 16.263001658383757,11.370632750223619 16.27026277091879,11.638471460216834 C16.271688452566725,11.69105111366757 16.206678305071925,11.758629116911692 16.15668601408204,11.797691580970639 C15.47332017147023,12.331659458756063 14.693233389606565,12.550637406452584 13.84823892061518,12.547789927111896 C13.798869035173501,12.547623793904886 13.749619730099507,12.508773413334024 13.690570667459673,12.483804948230985 C13.702012294753441,12.134478721965044 13.920687163632786,11.932823550873707 14.157398153991245,11.777821816579738 C14.620248267443639,11.474739857320609 15.103000532983344,11.204487901566917 15.601194926605874,10.909580367199403 z" id="svg_9" class=""/><path fill="#FF9300" opacity="1.000000" stroke="none" d="M17.981552395581343,5.2225478011507285 C17.279282714079425,5.244506694043745 16.848301332898487,5.7271192776562865 16.446655903249308,6.219275207350896 C16.234424770150248,6.4793328432938235 16.106722912765868,6.813901291059128 15.940385985428001,7.140434055019946 C15.793369063976055,7.049364775217027 15.656745181855348,6.91471059236478 15.498015162555049,6.8201282731886534 C15.244332781953265,6.668966640179123 15.231950100664218,6.518901102846154 15.455550446945521,6.334229936317526 C16.024962504926094,5.863952435163816 16.594013612494532,5.3931981741637856 17.164287325922256,4.924051008836477 C17.197896368943134,4.8964011975997614 17.24079741416732,4.880771733364584 17.279773337805008,4.860372684737502 C17.781020259675614,4.598025957817426 17.84571973152361,4.629006513869621 17.981552395581343,5.2225478011507285 z" id="svg_10" class=""/><path fill="#FF9300" opacity="1.000000" stroke="none" d="M8.188861564086668,7.095322726090912 C7.800431610954538,6.406793784739914 7.417295860764034,5.7293460515607375 6.672867131590139,5.4005543279546195 C6.514575023286376,5.330641283452256 6.3409706578859915,5.2981753897001695 6.148006290816511,5.248153064560414 C6.128470096850597,5.169032295924673 6.1254163825661045,5.087590319051229 6.14394694944367,5.011852614179915 C6.224217300215168,4.683777331468968 6.33427890871555,4.608486460553015 6.603252658995087,4.787798564270167 C7.1511274819242745,5.153040981786024 7.681489950228322,5.547975566996032 8.206041564955187,5.949077624955151 C8.433276585685963,6.122834264361361 8.628268877332713,6.342135849954127 8.875897662240057,6.576742714043425 C8.618140785355836,6.776721761319971 8.41483273124768,6.934457366137472 8.188861564086668,7.095322726090912 z" id="svg_11" class=""/><path fill="#FFFCF7" opacity="1.000000" stroke="none" d="M14.300899136415891,10.246403175188707 C14.058822187913389,9.906221123338044 14.209740114878306,9.645737676891752 14.424064536338657,9.409805787484089 C14.722108895450114,9.081710919407437 15.03318548845428,9.014580161000472 15.373242156178232,9.183850929896325 C15.688687250711087,9.34087098406255 15.929065004392832,9.688800691577278 15.847547931688503,9.96488278612389 C15.801035339724708,10.122408567303198 15.637983140206368,10.353328452058118 15.520818030230794,10.357636136828726 C15.122810240122096,10.372269281183966 14.721868591296582,10.30074879860739 14.300899136415891,10.246403175188707 z" id="svg_12" class=""/><path fill="#FFFCF7" opacity="1.000000" stroke="none" d="M9.664864825784113,10.319063717794233 C9.322377574123891,10.346440292635252 9.005940623703143,10.385765584084345 8.690043122173261,10.381538295185555 C8.370294824004818,10.377259851502911 8.192504672572792,10.09731204403978 8.265649646086542,9.764602767930286 C8.347871026741819,9.390606856108777 8.753534550053358,9.073260108026341 9.121481456824107,9.095093818931554 C9.475486769235216,9.116100493257626 9.928513404393694,9.52823308396681 9.92183898453293,9.880601068183621 C9.919087182404054,10.025886612119145 9.772381924962579,10.168227023806647 9.664864825784113,10.319063717794233 z" id="svg_13" class=""/><path fill="#0D0D0D" opacity="1.000000" stroke="none" d="M11.002229854311311,16.94315495597024 C10.850007419084342,16.633833756607938 10.705942410458915,16.348143533615755 10.530038452253942,15.99931680265562 C10.932878813579656,16.034381386819682 11.300020335741506,16.07717219231401 11.668286418086618,16.09533303082659 C12.032925535218883,16.113314108552522 12.194564177016975,15.921043477728329 12.209965650407513,15.551859471123908 C12.21861574335288,15.344518860112863 12.116271476057417,15.279605973171396 11.967196451990818,15.207208189475713 C11.501152210721946,14.980876073917056 11.204203222120032,14.644177820351635 11.27375483478571,14.057236390431775 C11.307534798830513,13.772171050174101 11.427232557763961,13.614835370306684 11.71056565078082,13.614229319654587 C12.05097773408036,13.613501031667571 12.391451161818326,13.609765431320431 12.731790369769966,13.614947198636049 C13.102114027602438,13.620584565385403 13.232189670957533,13.776638088602049 13.254283684209446,14.155901436594073 C13.282503707267322,14.640311559592718 13.12495504611583,15.024013800609518 12.695548128260556,15.218968859180888 C12.43471823105483,15.337387253224652 12.441959246861913,15.55475700956366 12.505765896861702,15.717466680947883 C12.566537216141258,15.872436640382807 12.752208315910982,16.058007158687033 12.899645489595239,16.075146065687598 C13.194295544301678,16.10939772021425 13.500236467896807,16.036081478739355 13.801800785381156,16.01088202958553 C13.865967397429415,16.005520501483257 13.93135661533696,16.015959364444157 14.092808258728763,16.023828709600735 C13.88711330635854,16.41730514378981 13.706604034689642,16.76260424907291 13.526093774657069,17.10790225867122 C13.496838144146185,17.11017285996747 13.467582579526225,17.112443529744017 13.438326026542589,17.11471413104025 C13.426630982803937,16.85970821832388 13.414935016592525,16.604702237127206 13.403989020733597,16.366029560685746 C12.668118400792885,16.366029560685746 11.949347856045273,16.366029560685746 11.194968479118641,16.366029560685746 C11.194968479118641,16.596001130250805 11.194968479118641,16.85134458236427 11.194968479118641,17.208213091875557 C11.09236631479633,17.074014234535827 11.051376567236394,17.02040114488274 11.002229854311311,16.94315495597024 z" id="svg_14" class=""/><path fill="#111111" opacity="1.000000" stroke="none" d="M12.846288083874041,16.615986420907262 C12.801562189861219,16.66918362970044 12.723554994220358,16.77296360640588 12.716928279379376,16.7682541477171 C12.490070352334001,16.607034539173455 12.420213071730787,16.89660560922839 12.237608996209637,16.945705641692147 C12.184953921712045,16.877306833576146 12.12721944864368,16.802309332263988 12.061093768020468,16.685156385677878 C12.052819648615012,16.61378683368178 12.052936275528022,16.58457279543994 12.05305244120466,16.555359784402608 C12.263664832285654,16.552562501121578 12.474277289257572,16.549765217840548 12.735090120717274,16.571323158578984 C12.805622058361353,16.60244731781959 12.825954543990404,16.60921632152103 12.846288083874041,16.615986420907262 z" id="svg_15" class=""/><path fill="#1F1F1F" opacity="1.000000" stroke="none" d="M12.024619788175997,16.548628376385686 C12.052936275528022,16.58457279543994 12.052819648615012,16.61378683368178 12.052192828375759,16.664903610970896 C11.901261327883113,16.651628841839965 11.691386849117825,16.938876032925496 11.571526273742535,16.541897995573265 C11.728878316414686,16.541897995573265 11.86253269283555,16.541897995573265 12.024619788175997,16.548628376385686 z" id="svg_16" class=""/><path fill="#1F1F1F" opacity="1.000000" stroke="none" d="M12.846238797472385,16.59413285071514 C12.825954543990404,16.60921632152103 12.805622058361353,16.60244731781959 12.757865775446652,16.578147562842865 C12.769022885785398,16.564503958817888 12.807606692609893,16.5683910375879 12.846238797472385,16.59413285071514 z" id="svg_17" class=""/><path fill="#EF0701" fill-opacity="1" stroke="none" stroke-opacity="1" stroke-width="1" stroke-dasharray="none" stroke-linejoin="miter" stroke-linecap="butt" stroke-dashoffset="" fill-rule="nonzero" opacity="1" marker-start="" marker-mid="" marker-end="" d="M9,0 C9,0 9,0 9,0 C9,0 9,0 9,0 C9,0 9,0 9,0 C9,0 9,0 9,0 Z" id="svg_20"/></g></svg>