<svg xmlns="http://www.w3.org/2000/svg" width="16" height="16" viewBox="0 0 16 16" fill="none">
	<path fill-rule="evenodd" clip-rule="evenodd"
		d="M9.8091 3.69058L9.87191 3.74604L13.3678 7.24189C13.6081 7.48222 13.6266 7.86037 13.4232 8.1219L13.3678 8.1847L9.87191 11.6806C9.61156 11.9409 9.18945 11.9409 8.9291 11.6806C8.68878 11.4402 8.67029 11.0621 8.87364 10.8005L8.9291 10.7377L11.4413 8.22496L2.66667 8.22547C2.29848 8.22547 2 7.92699 2 7.5588C2 7.21691 2.25736 6.93513 2.58892 6.89662L2.66667 6.89213L11.132 6.89162L8.9291 4.68885C8.66875 4.4285 8.66875 4.00639 8.9291 3.74604C9.16942 3.50572 9.54758 3.48723 9.8091 3.69058Z"
		fill="#A4CBFF" />
</svg>