<svg width="16" height="16" viewBox="0 0 16 16" fill="none" xmlns="http://www.w3.org/2000/svg">
	<path fill-rule="evenodd" clip-rule="evenodd"
		d="M12.0069 3.99131C12.1226 4.10702 12.1355 4.28664 12.0455 4.41655L12.0069 4.46272L8.4714 7.99825L12.0069 11.5338C12.1371 11.664 12.1371 11.875 12.0069 12.0052C11.8912 12.1209 11.7116 12.1338 11.5817 12.0438L11.5355 12.0052L8 8.46965L4.46447 12.0052C4.33429 12.1354 4.12324 12.1354 3.99306 12.0052C3.87735 11.8895 3.86449 11.7099 3.95449 11.5799L3.99306 11.5338L7.5286 7.99825L3.99306 4.46272C3.86289 4.33254 3.86289 4.12149 3.99306 3.99131C4.10877 3.8756 4.28839 3.86275 4.4183 3.95274L4.46447 3.99131L8 7.52685L11.5355 3.99131C11.6657 3.86114 11.8768 3.86114 12.0069 3.99131Z"
		fill="#99999A" />
</svg>
	