<svg width="40" height="40" viewBox="0 0 40 40" fill="none" xmlns="http://www.w3.org/2000/svg">
	<circle cx="20" cy="20" r="19.5" stroke="#3C3A3E" />
	<path
		d="M18.5525 19.9031C18.5525 19.6825 18.4647 19.5037 18.3564 19.5037H14.8271L14.7919 19.5101C14.7004 19.5439 14.6311 19.707 14.6311 19.9031C14.6311 20.1237 14.7188 20.3025 14.8271 20.3025H18.3564L18.3917 20.296C18.4832 20.2622 18.5525 20.0992 18.5525 19.9031Z"
		fill="#E5E5E5" />
	<path
		d="M23.9117 17.1738C23.9117 16.9164 23.7069 16.7078 23.4542 16.7078H15.2191L15.1369 16.7153C14.9235 16.7548 14.7616 16.945 14.7616 17.1738C14.7616 17.4311 14.9665 17.6398 15.2191 17.6398H23.4542L23.5365 17.6323C23.7499 17.5928 23.9117 17.4026 23.9117 17.1738Z"
		fill="#E5E5E5" />
	<path
		d="M20.5568 14.378C20.5568 14.1206 20.3519 13.912 20.0993 13.912H15.2191L15.1369 13.9195C14.9235 13.9589 14.7616 14.1492 14.7616 14.378C14.7616 14.6353 14.9665 14.8439 15.2191 14.8439H20.0993L20.1815 14.8364C20.3949 14.797 20.5568 14.6067 20.5568 14.378Z"
		fill="#E5E5E5" />
	<path
		d="M25.1202 27.053C24.9219 27.1407 24.6678 27.1971 24.3581 27.2221V25.8629C24.7575 25.9507 25.0323 26.0148 25.1824 26.0552C25.4183 26.1151 25.5362 26.2678 25.5362 26.5132C25.5362 26.7477 25.3976 26.9276 25.1202 27.053Z"
		fill="#E5E5E5" />
	<path
		d="M23.5494 23.2544V24.485C23.2227 24.4136 22.9881 24.3604 22.8457 24.3253C22.602 24.2653 22.4802 24.1236 22.4802 23.9C22.4802 23.7446 22.5851 23.596 22.7951 23.4543C22.9535 23.3473 23.205 23.2807 23.5494 23.2544Z"
		fill="#E5E5E5" />
	<path fill-rule="evenodd" clip-rule="evenodd"
		d="M29.075 25.2577C29.075 28.1253 26.7926 30.45 23.9771 30.45C21.1616 30.45 18.8792 28.1253 18.8792 25.2577C18.8792 22.3901 21.1616 20.0654 23.9771 20.0654C26.7926 20.0654 29.075 22.3901 29.075 25.2577ZM21.2321 26.4355C21.2347 26.9371 21.4835 27.3611 21.9786 27.7073C22.3896 27.9932 22.9119 28.1611 23.5455 28.2109V28.4247C23.5455 28.6609 23.7335 28.8524 23.9654 28.8524C24.1974 28.8524 24.3854 28.6609 24.3854 28.4247V28.2103C25.0257 28.1591 25.5531 27.9873 25.9678 27.695C26.4707 27.3406 26.7221 26.9317 26.7221 26.4682C26.7221 25.8929 26.5316 25.4922 26.1506 25.2659C25.7721 25.0369 25.1837 24.8365 24.3854 24.6647L24.3542 24.6581V23.2683C24.6653 23.31 24.8999 23.4006 25.058 23.5401C25.2835 23.7392 25.3963 23.9109 25.3963 24.0554C25.3963 24.0915 25.425 24.1208 25.4605 24.1208H26.5178C26.5555 24.1208 26.586 24.0897 26.586 24.0513C26.586 23.6069 26.3385 23.2021 25.8434 22.8367C25.4434 22.5416 24.9471 22.3657 24.3542 22.309V22.0888C24.3542 21.8537 24.1671 21.6631 23.9363 21.6631C23.7054 21.6631 23.5183 21.8537 23.5183 22.0888V22.3029C22.8734 22.3509 22.3615 22.5207 21.9825 22.8122C21.5315 23.1612 21.306 23.5524 21.306 23.9859C21.306 24.5093 21.477 24.8801 21.8192 25.0982C22.1568 25.3135 22.7331 25.5101 23.5479 25.6882C23.5463 25.7029 23.5455 25.7178 23.5455 25.7329V27.2182C23.2245 27.1869 22.9614 27.1169 22.7562 27.008C22.4711 26.8553 22.3285 26.6645 22.3285 26.4355C22.3285 26.3971 22.298 26.366 22.2603 26.366H21.3003C21.2626 26.366 21.2321 26.3971 21.2321 26.4355Z"
		fill="#E5E5E5" />
	<path fill-rule="evenodd" clip-rule="evenodd"
		d="M22.6536 11.2293H13.8468C13.152 11.2293 12.5887 11.803 12.5887 12.5107V26.1789C12.5887 26.8866 13.152 27.4603 13.8468 27.4603H18.426C18.5375 27.7571 18.6715 28.0426 18.826 28.3146H13.8468C12.6888 28.3146 11.75 27.3584 11.75 26.1789V12.5107C11.75 11.3312 12.6888 10.375 13.8468 10.375H23.0697C23.1799 10.3742 23.2885 10.4176 23.3695 10.5001L27.5631 14.7714C27.6426 14.8523 27.6851 14.9602 27.686 15.0702V15.0769V20.744C27.4248 20.5205 27.1442 20.3198 26.8472 20.1448V15.5006L23.0729 15.5006C22.8413 15.5006 22.6536 15.3094 22.6536 15.0735V11.2293ZM23.4923 14.6463V11.8333L26.2542 14.6463H23.4923Z"
		fill="#E5E5E5" />
</svg>
	