<svg width="40" height="40" viewBox="0 0 40 40" fill="none" xmlns="http://www.w3.org/2000/svg">
	<circle cx="20" cy="20" r="19.5" stroke="#696565" />
	<path
		d="M18.6104 20.6535C18.6104 20.3953 18.5058 20.186 18.3767 20.186H14.1688L14.1267 20.1935C14.0177 20.2331 13.935 20.424 13.935 20.6535C13.935 20.9118 14.0397 21.1211 14.1688 21.1211H18.3767L18.4187 21.1136C18.5277 21.074 18.6104 20.8831 18.6104 20.6535Z"
		fill="#696565" />
	<path
		d="M25.0001 17.4587C25.0001 17.1574 24.7558 16.9132 24.4546 16.9132H14.6362L14.5381 16.922C14.2837 16.9682 14.0907 17.1909 14.0907 17.4587C14.0907 17.7599 14.3349 18.0041 14.6362 18.0041H24.4546L24.5526 17.9953C24.8071 17.9492 25.0001 17.7264 25.0001 17.4587Z"
		fill="#696565" />
	<path
		d="M21.0001 14.1858C21.0001 13.8846 20.7558 13.6404 20.4546 13.6404H14.6362L14.5381 13.6492C14.2837 13.6954 14.0907 13.9181 14.0907 14.1858C14.0907 14.4871 14.3349 14.7313 14.6362 14.7313H20.4546L20.5526 14.7225C20.8071 14.6763 21.0001 14.4536 21.0001 14.1858Z"
		fill="#696565" />
	<path
		d="M26.4409 29.0232C26.2044 29.1259 25.9016 29.1919 25.5323 29.2212V27.6301C26.0085 27.7329 26.336 27.8079 26.5151 27.8552C26.7963 27.9254 26.9369 28.1041 26.9369 28.3913C26.9369 28.6658 26.7716 28.8764 26.4409 29.0232Z"
		fill="#696565" />
	<path
		d="M24.5681 24.5766V26.0172C24.1785 25.9336 23.8989 25.8713 23.729 25.8302C23.4385 25.76 23.2933 25.594 23.2933 25.3323C23.2933 25.1504 23.4184 24.9765 23.6688 24.8105C23.8577 24.6853 24.1574 24.6073 24.5681 24.5766Z"
		fill="#696565" />
	<path fill-rule="evenodd" clip-rule="evenodd"
		d="M31.1561 26.9217C31.1561 30.2785 28.4348 32.9998 25.078 32.9998C21.7212 32.9998 18.9999 30.2785 18.9999 26.9217C18.9999 23.5648 21.7212 20.8436 25.078 20.8436C28.4348 20.8436 31.1561 23.5648 31.1561 26.9217ZM21.8052 28.3004C21.8083 28.8876 22.105 29.3839 22.6953 29.7892C23.1852 30.1239 23.808 30.3204 24.5634 30.3787V30.6289C24.5634 30.9054 24.7876 31.1296 25.0641 31.1296C25.3406 31.1296 25.5648 30.9054 25.5648 30.6289V30.378C26.3282 30.318 26.9571 30.1169 27.4515 29.7748C28.051 29.3599 28.3508 28.8812 28.3508 28.3387C28.3508 27.6653 28.1237 27.1961 27.6694 26.9312C27.2182 26.6632 26.5166 26.4286 25.5648 26.2275L25.5277 26.2198V24.5928C25.8985 24.6416 26.1782 24.7477 26.3667 24.9111C26.6356 25.144 26.77 25.3451 26.77 25.5143C26.77 25.5566 26.8043 25.5908 26.8466 25.5908H28.1072C28.1521 25.5908 28.1886 25.5544 28.1886 25.5095C28.1886 24.9893 27.8934 24.5153 27.3032 24.0877C26.8263 23.7422 26.2345 23.5363 25.5277 23.4699V23.2121C25.5277 22.9369 25.3046 22.7138 25.0293 22.7138C24.7541 22.7138 24.531 22.9369 24.531 23.2121V23.4628C23.7621 23.519 23.1517 23.7177 22.6999 24.059C22.1622 24.4675 21.8933 24.9254 21.8933 25.4329C21.8933 26.0456 22.0973 26.4797 22.5052 26.735C22.9078 26.9869 23.5948 27.2171 24.5662 27.4256C24.5644 27.4428 24.5634 27.4602 24.5634 27.4779V29.2166C24.1807 29.18 23.867 29.098 23.6224 28.9706C23.2824 28.7919 23.1125 28.5685 23.1125 28.3004C23.1125 28.2554 23.076 28.219 23.0311 28.219H21.8866C21.8416 28.219 21.8052 28.2554 21.8052 28.3004Z"
		fill="#696565" />
	<path fill-rule="evenodd" clip-rule="evenodd"
		d="M23.5 10.5H13C12.1716 10.5 11.5 11.1716 11.5 12V28C11.5 28.8284 12.1716 29.5 13 29.5H18.4596C18.5925 29.8475 18.7523 30.1817 18.9365 30.5H13C11.6193 30.5 10.5 29.3807 10.5 28V12C10.5 10.6193 11.6193 9.50001 13 9.50001H23.9961C24.1275 9.49902 24.257 9.54988 24.3536 9.64646L29.3536 14.6465C29.4482 14.7411 29.499 14.8674 29.5 14.9962V15.0041V21.6379C29.1886 21.3763 28.8541 21.1413 28.5 20.9365V15.5L24 15.5C23.7239 15.5 23.5 15.2762 23.5 15V10.5ZM24.5 14.5V11.2071L27.7929 14.5H24.5Z"
		fill="#696565" />
</svg>