<svg width="16" height="16" viewBox="0 0 16 16" fill="none" xmlns="http://www.w3.org/2000/svg">
	<path
		d="M13.0687 2.90802C14.3104 4.11871 14.3104 6.08163 13.0687 7.29233L12.0875 8.24896C11.9295 8.40299 11.6733 8.40299 11.5154 8.24896C11.3574 8.09493 11.3574 7.8452 11.5154 7.69117L12.4965 6.73454C13.4224 5.8319 13.4224 4.36845 12.4965 3.46581C11.5707 2.56318 10.0697 2.56318 9.14388 3.46581L8.16269 4.42244C8.0047 4.57647 7.74856 4.57647 7.59057 4.42244C7.43259 4.26841 7.43259 4.01868 7.59057 3.86465L8.57177 2.90802C9.81355 1.69733 11.8269 1.69733 13.0687 2.90802Z"
		fill="#EA6B24" />
	<path
		d="M2.93134 13.092C1.68955 11.8813 1.68955 9.91837 2.93134 8.70767L3.91253 7.75104C4.07052 7.59701 4.32666 7.59701 4.48465 7.75104C4.64263 7.90507 4.64263 8.1548 4.48465 8.30884L3.50345 9.26546C2.57764 10.1681 2.57764 11.6316 3.50345 12.5342C4.42927 13.4368 5.9303 13.4368 6.85612 12.5342L7.83731 11.5776C7.9953 11.4235 8.25144 11.4235 8.40943 11.5776C8.56741 11.7316 8.56741 11.9813 8.40943 12.1354L7.42823 13.092C6.18645 14.3027 4.17312 14.3027 2.93134 13.092Z"
		fill="#EA6B24" />
	<path
		d="M11.8013 12.4351C11.9593 12.5891 12.2154 12.5891 12.3734 12.4351C12.5314 12.2811 12.5314 12.0313 12.3734 11.8773L3.97458 3.68878C3.8166 3.53475 3.56045 3.53475 3.40247 3.68878C3.24448 3.84281 3.24448 4.09254 3.40247 4.24657L11.8013 12.4351Z"
		fill="#EA6B24" />
</svg>