<svg xmlns="http://www.w3.org/2000/svg" width="40" height="40" viewBox="0 0 40 40">
    <g fill="none" fill-rule="evenodd">
        <g>
            <g>
                <g fill="#FFF" transform="translate(-402 -181) translate(402 181)">
                    <circle cx="20" cy="20" r="20"/>
                </g>
                <g stroke="#E5E5E5" transform="translate(-402 -181) translate(402 181)">
                    <circle cx="20" cy="20" r="19.5"/>
                </g>
                <g fill="#99999A">
                    <path d="M10.344 2.824c.281-.238.702-.202.94.08.218.26.205.638-.02.881l-.06.058-4.842 4.083 4.945 4.234c.259.221.306.597.124.873l-.05.067c-.222.258-.598.306-.874.123l-.067-.05L4.9 8.429c-.292-.25-.31-.688-.055-.96l.058-.056 5.44-4.59z" transform="translate(-402 -181) translate(402 181) translate(12 12)"/>
                </g>
            </g>
        </g>
    </g>
</svg>
