<svg width="16" height="16" viewBox="0 0 16 16" fill="none" xmlns="http://www.w3.org/2000/svg">
	<circle cx="7.99967" cy="8.00065" r="6.66667" fill="#99999A" />
	<path fill-rule="evenodd" clip-rule="evenodd"
		d="M7.99967 5.33333C8.36786 5.33333 8.66634 5.03486 8.66634 4.66667C8.66634 4.29848 8.36786 4 7.99967 4C7.63148 4 7.33301 4.29848 7.33301 4.66667C7.33301 5.03486 7.63148 5.33333 7.99967 5.33333ZM8.66186 7.23542C8.62335 6.91521 8.34157 6.66667 7.99967 6.66667C7.63148 6.66667 7.33301 6.95492 7.33301 7.3105V11.3562L7.33749 11.4313C7.376 11.7515 7.65778 12 7.99967 12C8.36786 12 8.66634 11.7117 8.66634 11.3562V7.3105L8.66186 7.23542Z"
		fill="#E5E5E5" />
</svg>