<svg width="41" height="40" viewBox="0 0 41 40" fill="none" xmlns="http://www.w3.org/2000/svg">
<g id="Icon/Hover/Light">
<rect x="0.055542" width="40" height="40" rx="20" fill="white"/>
<path id="Vector" d="M20.0556 26.6667C21.8237 26.6667 23.5194 25.9643 24.7696 24.7141C26.0198 23.4638 26.7222 21.7681 26.7222 20C26.7222 18.2319 26.0198 16.5362 24.7696 15.286C23.5194 14.0357 21.8237 13.3334 20.0556 13.3334C18.2875 13.3334 16.5918 14.0357 15.3415 15.286C14.0913 16.5362 13.3889 18.2319 13.3889 20C13.3889 21.7681 14.0913 23.4638 15.3415 24.7141C16.5918 25.9643 18.2875 26.6667 20.0556 26.6667ZM20.0556 6.66669C20.2766 6.66669 20.4885 6.75448 20.6448 6.91076C20.8011 7.06704 20.8889 7.27901 20.8889 7.50002V10.8334C20.8889 11.0544 20.8011 11.2663 20.6448 11.4226C20.4885 11.5789 20.2766 11.6667 20.0556 11.6667C19.8345 11.6667 19.6226 11.5789 19.4663 11.4226C19.31 11.2663 19.2222 11.0544 19.2222 10.8334V7.50002C19.2222 7.27901 19.31 7.06704 19.4663 6.91076C19.6226 6.75448 19.8345 6.66669 20.0556 6.66669V6.66669ZM20.0556 28.3334C20.2766 28.3334 20.4885 28.4211 20.6448 28.5774C20.8011 28.7337 20.8889 28.9457 20.8889 29.1667V32.5C20.8889 32.721 20.8011 32.933 20.6448 33.0893C20.4885 33.2456 20.2766 33.3334 20.0556 33.3334C19.8345 33.3334 19.6226 33.2456 19.4663 33.0893C19.31 32.933 19.2222 32.721 19.2222 32.5V29.1667C19.2222 28.9457 19.31 28.7337 19.4663 28.5774C19.6226 28.4211 19.8345 28.3334 20.0556 28.3334ZM33.3889 20C33.3889 20.221 33.3011 20.433 33.1448 20.5893C32.9885 20.7456 32.7766 20.8334 32.5556 20.8334H29.2222C29.0012 20.8334 28.7893 20.7456 28.633 20.5893C28.4767 20.433 28.3889 20.221 28.3889 20C28.3889 19.779 28.4767 19.567 28.633 19.4108C28.7893 19.2545 29.0012 19.1667 29.2222 19.1667H32.5556C32.7766 19.1667 32.9885 19.2545 33.1448 19.4108C33.3011 19.567 33.3889 19.779 33.3889 20ZM11.7222 20C11.7222 20.221 11.6344 20.433 11.4782 20.5893C11.3219 20.7456 11.1099 20.8334 10.8889 20.8334H7.55556C7.33455 20.8334 7.12259 20.7456 6.96631 20.5893C6.81003 20.433 6.72223 20.221 6.72223 20C6.72223 19.779 6.81003 19.567 6.96631 19.4108C7.12259 19.2545 7.33455 19.1667 7.55556 19.1667H10.8889C11.1099 19.1667 11.3219 19.2545 11.4782 19.4108C11.6344 19.567 11.7222 19.779 11.7222 20ZM29.4839 10.5717C29.6401 10.728 29.7279 10.9399 29.7279 11.1609C29.7279 11.3818 29.6401 11.5937 29.4839 11.75L27.1272 14.1084C27.0497 14.1857 26.9578 14.2471 26.8566 14.2889C26.7554 14.3307 26.647 14.3522 26.5375 14.3521C26.3163 14.352 26.1043 14.264 25.9481 14.1075C25.8707 14.03 25.8093 13.9381 25.7675 13.8369C25.7257 13.7357 25.7042 13.6273 25.7043 13.5178C25.7044 13.2966 25.7924 13.0846 25.9489 12.9284L28.3056 10.5717C28.4618 10.4155 28.6738 10.3277 28.8947 10.3277C29.1157 10.3277 29.3276 10.4155 29.4839 10.5717ZM14.1622 25.8934C14.3185 26.0496 14.4062 26.2615 14.4062 26.4825C14.4062 26.7035 14.3185 26.9154 14.1622 27.0717L11.8056 29.4284C11.6484 29.5801 11.4379 29.6641 11.2194 29.6622C11.0009 29.6603 10.7919 29.5727 10.6374 29.4182C10.4829 29.2637 10.3952 29.0547 10.3933 28.8362C10.3914 28.6177 10.4754 28.4072 10.6272 28.25L12.9839 25.8934C13.1402 25.7371 13.3521 25.6494 13.5731 25.6494C13.794 25.6494 14.006 25.7371 14.1622 25.8934ZM29.4839 29.4284C29.3276 29.5846 29.1157 29.6723 28.8947 29.6723C28.6738 29.6723 28.4618 29.5846 28.3056 29.4284L25.9489 27.0717C25.7971 26.9145 25.7131 26.704 25.715 26.4855C25.7169 26.267 25.8045 26.058 25.959 25.9035C26.1136 25.749 26.3226 25.6614 26.5411 25.6595C26.7596 25.6576 26.9701 25.7416 27.1272 25.8934L29.4839 28.25C29.6401 28.4063 29.7279 28.6182 29.7279 28.8392C29.7279 29.0602 29.6401 29.2721 29.4839 29.4284ZM14.1622 14.1084C14.006 14.2646 13.794 14.3523 13.5731 14.3523C13.3521 14.3523 13.1402 14.2646 12.9839 14.1084L10.6272 11.75C10.5476 11.6731 10.4842 11.5812 10.4405 11.4795C10.3968 11.3779 10.3738 11.2685 10.3729 11.1579C10.3719 11.0472 10.393 10.9375 10.4349 10.8351C10.4768 10.7326 10.5387 10.6396 10.6169 10.5614C10.6951 10.4831 10.7882 10.4212 10.8906 10.3793C10.993 10.3374 11.1027 10.3163 11.2134 10.3173C11.324 10.3183 11.4334 10.3413 11.5351 10.3849C11.6367 10.4286 11.7287 10.4921 11.8056 10.5717L14.1622 12.9284C14.2398 13.0058 14.3014 13.0977 14.3434 13.199C14.3854 13.3002 14.4071 13.4087 14.4071 13.5184C14.4071 13.628 14.3854 13.7365 14.3434 13.8377C14.3014 13.939 14.2398 14.0309 14.1622 14.1084Z" fill="#F2C94C"/>
</g>
</svg>
