<svg width="40" height="40" viewBox="0 0 40 40" fill="none" xmlns="http://www.w3.org/2000/svg">
	<circle cx="20" cy="20" r="19.5" fill="#050D20" stroke="#3C3A3E" />
	<path fill-rule="evenodd" clip-rule="evenodd"
		d="M15.9208 26.7421L25.5391 17.1239C25.5391 17.1239 26.3482 16.2597 26.1557 15.1731C25.9632 14.0864 24.9714 13.2399 24.9714 13.2399L15.327 22.8843C15.327 22.8843 14.656 23.5861 14.6508 24.6621C14.6456 25.738 15.9208 26.7421 15.9208 26.7421ZM19.3589 30.1802L28.9772 20.5619C28.9772 20.5619 29.7862 19.6978 29.5937 18.6111C29.4012 17.5245 28.4094 16.678 28.4094 16.678L18.765 26.3224C18.765 26.3224 18.0941 27.0242 18.0889 28.1001C18.0836 29.1761 19.3589 30.1802 19.3589 30.1802ZM22.1011 13.6858L12.4828 23.3041C12.4828 23.3041 11.2076 22.3 11.2128 21.224C11.218 20.1481 11.8889 19.4463 11.8889 19.4463L21.5333 9.80188C21.5333 9.80188 22.5252 10.6484 22.7176 11.7351C22.9101 12.8217 22.1011 13.6858 22.1011 13.6858Z"
		fill="url(#paint0_linear_3367_136615)" />
	<defs>
		<linearGradient id="paint0_linear_3367_136615" x1="12.0692" y1="21.5213" x2="20.0435"
			y2="29.4956" gradientUnits="userSpaceOnUse">
			<stop stop-color="#7EB5FF" />
			<stop offset="0.999683" stop-color="#1A38F8" />
		</linearGradient>
	</defs>
</svg>
	