<svg width="16" height="16" viewBox="0 0 16 16" fill="none" xmlns="http://www.w3.org/2000/svg">
<circle cx="8.00016" cy="7.99998" r="6.66667" fill="#475A75"/>
<path fill-rule="evenodd" clip-rule="evenodd" d="M8.00016 5.33333C8.36835 5.33333 8.66683 5.03486 8.66683 4.66667C8.66683 4.29848 8.36835 4 8.00016 4C7.63197 4 7.3335 4.29848 7.3335 4.66667C7.3335 5.03486 7.63197 5.33333 8.00016 5.33333ZM8.66234 7.23542C8.62383 6.91521 8.34205 6.66667 8.00016 6.66667C7.63197 6.66667 7.3335 6.95492 7.3335 7.3105V11.3562L7.33798 11.4313C7.37649 11.7515 7.65827 12 8.00016 12C8.36835 12 8.66683 11.7117 8.66683 11.3562V7.3105L8.66234 7.23542Z" fill="#DDE4E9"/>
</svg>
