<svg width="300" height="61" viewBox="0 0 300 61" fill="none" xmlns="http://www.w3.org/2000/svg">
<path d="M13.6259 30.1502L6.81002 36.9602L0 30.1502L6.81002 23.3402L13.6259 30.1502ZM30.1502 13.6141L41.8203 25.2901L48.6303 18.4801L30.1502 0L11.6701 18.4801L18.4801 25.2901L30.1502 13.6141ZM53.4963 23.3402L46.6863 30.1502L53.4963 36.9602L60.3004 30.1502L53.4963 23.3402ZM30.1502 46.6863L18.4801 35.0162L11.6701 41.8203L30.1502 60.3004L48.6303 41.8203L41.8203 35.0162L30.1502 46.6863ZM30.1502 36.9602L36.9602 30.1502L30.1502 23.3402L23.3402 30.1502L30.1502 36.9602ZM102.021 37.6141V37.5199C102.021 33.0781 99.6642 30.8571 95.8292 29.3962C98.1856 28.0707 100.177 25.9912 100.177 22.2621V22.1679C100.177 16.972 96.0177 13.6141 89.2607 13.6141H73.9205V46.6863H89.6495C97.1134 46.6863 102.032 43.6642 102.032 37.6141H102.021ZM92.9484 23.4757C92.9484 25.9323 90.9161 26.975 87.7055 26.975H81.0074V19.9941H88.1885C91.2577 19.9941 92.9602 21.2194 92.9602 23.3932L92.9484 23.4757ZM94.7923 36.7069C94.7923 39.1635 92.8542 40.2945 89.6377 40.2945H81.0074V33.0309H89.4138C93.1487 33.0309 94.8041 34.4035 94.8041 36.6244L94.7923 36.7069ZM117.308 46.6863V13.6141H110.009V46.6863H117.308ZM156.418 46.6863V13.6141H149.214V33.9794L133.72 13.6141H127.01V46.6863H134.191V25.6613L150.203 46.6863H156.418ZM196.719 46.6863L182.521 13.3785H175.811L161.644 46.6863H169.06L172.094 39.2695H186.08L189.102 46.6863H196.719ZM183.493 32.8424H174.68L179.075 22.1208L183.493 32.8424ZM231.399 46.6863V13.6141H224.194V33.9794L208.695 13.6141H201.991V46.6863H209.166V25.6613L225.184 46.6863H231.399ZM268.954 41.349L264.33 36.6716C261.732 39.028 259.417 40.542 255.635 40.542C249.968 40.542 246.044 35.8292 246.044 30.1502V30.056C246.044 24.3888 250.062 19.7585 255.635 19.7585C258.94 19.7585 261.526 21.1723 264.094 23.4875L268.707 18.1502C265.638 15.1281 261.909 13.0486 255.67 13.0486C245.514 13.0486 238.427 20.7482 238.427 30.1325V30.2268C238.427 39.7231 245.655 47.2342 255.387 47.2342C261.756 47.2518 265.532 44.9838 268.931 41.349H268.954ZM300 46.6863V40.2062H282.021V33.2489H297.614V26.7688H282.021V20.0884H299.741V13.6082H274.792V46.6804L300 46.6863Z" fill="#F0B90B"/>
</svg>
