<svg width="300" height="47" viewBox="0 0 300 47" fill="none" xmlns="http://www.w3.org/2000/svg">
<path d="M57.2857 35.9371C56.5864 35.9371 56.0921 35.7922 55.8027 35.503C55.5374 35.2136 55.4048 34.7554 55.4048 34.1284V13.1851C55.4048 12.5581 55.5494 12.0999 55.8388 11.8106C56.1282 11.4971 56.6104 11.3403 57.2857 11.3403H66.1477C69.5237 11.3403 72.0074 12.0517 73.5992 13.4745C75.1907 14.8972 75.9865 17.0193 75.9865 19.8407C75.9865 22.6379 75.1907 24.7479 73.5992 26.1706C72.0316 27.5694 69.5479 28.2687 66.1477 28.2687H62.7114V34.1284C62.7114 34.7554 62.5668 35.2136 62.2774 35.503C61.988 35.7922 61.4936 35.9371 60.7943 35.9371H57.2857ZM65.5691 23.0238C66.5578 23.0238 67.3174 22.7585 67.8479 22.228C68.4024 21.6975 68.6798 20.9017 68.6798 19.8407C68.6798 18.7555 68.4024 17.9477 67.8479 17.4172C67.3174 16.8867 66.5578 16.6214 65.5691 16.6214H62.7114V23.0238H65.5691Z" fill="#F6F6F6"/>
<path d="M84.5289 36.4797C82.2623 36.4797 80.4417 35.7562 79.067 34.3096C77.7166 32.8385 77.0415 30.7768 77.0415 28.124C77.0415 26.0985 77.4997 24.326 78.4159 22.8069C79.3565 21.2877 80.6708 20.1181 82.3587 19.2983C84.0709 18.4542 86.0361 18.0322 88.2546 18.0322C90.0874 18.0322 91.7031 18.2372 93.1017 18.6471C94.5244 19.033 95.8265 19.5997 97.0082 20.3472V34.8159C97.0082 35.2741 96.9239 35.5755 96.7549 35.7201C96.5861 35.8649 96.2486 35.9372 95.7422 35.9372H92.0526C91.7874 35.9372 91.5825 35.9011 91.4379 35.8285C91.293 35.7323 91.1726 35.5875 91.0761 35.3945L90.6057 34.3096C89.9065 35.057 89.0626 35.5997 88.0739 35.9372C87.1093 36.2989 85.9277 36.4797 84.5289 36.4797ZM87.242 31.5603C88.1823 31.5603 88.9177 31.3312 89.4483 30.8733C89.9788 30.4151 90.244 29.7639 90.244 28.9198V23.2771C89.786 23.0601 89.2072 22.9516 88.5079 22.9516C87.2298 22.9516 86.2049 23.3977 85.4333 24.2898C84.6857 25.1821 84.312 26.436 84.312 28.0517C84.312 30.3909 85.2885 31.5603 87.242 31.5603Z" fill="#F6F6F6"/>
<path d="M102.042 35.9372C101.343 35.9372 100.848 35.7924 100.559 35.5032C100.27 35.2138 100.125 34.7556 100.125 34.1286V19.6961C100.125 19.2621 100.197 18.9727 100.342 18.828C100.511 18.6592 100.848 18.5748 101.355 18.5748H105.081C105.37 18.5748 105.587 18.623 105.731 18.7195C105.9 18.7918 105.997 18.9365 106.021 19.1536L106.202 20.2387C106.877 19.5635 107.757 19.033 108.842 18.6471C109.952 18.2372 111.181 18.0322 112.532 18.0322C114.485 18.0322 116.065 18.5869 117.27 19.6961C118.476 20.7813 119.079 22.3969 119.079 24.5431V34.1286C119.079 34.7556 118.934 35.2138 118.645 35.5032C118.379 35.7924 117.897 35.9372 117.198 35.9372H113.689C112.99 35.9372 112.484 35.7924 112.17 35.5032C111.881 35.2138 111.736 34.7556 111.736 34.1286V25.0133C111.736 24.2898 111.579 23.7715 111.266 23.458C110.952 23.1445 110.458 22.9877 109.783 22.9877C109.059 22.9877 108.48 23.1806 108.046 23.5664C107.637 23.9523 107.432 24.4828 107.432 25.1581V34.1286C107.432 34.7556 107.287 35.2138 106.998 35.5032C106.732 35.7924 106.25 35.9372 105.551 35.9372H102.042Z" fill="#F6F6F6"/>
<path d="M131.864 36.4797C128.488 36.4797 125.884 35.6959 124.051 34.1286C122.218 32.5612 121.302 30.2824 121.302 27.2921C121.302 25.4595 121.724 23.8438 122.568 22.4452C123.412 21.0465 124.63 19.9614 126.221 19.1897C127.837 18.4181 129.742 18.0322 131.936 18.0322C133.6 18.0322 134.999 18.189 136.132 18.5025C137.29 18.8159 138.314 19.2982 139.207 19.9493C139.472 20.1181 139.605 20.3352 139.605 20.6004C139.605 20.7933 139.508 21.0465 139.315 21.36L137.832 23.9281C137.663 24.2659 137.458 24.4347 137.217 24.4347C137.073 24.4347 136.843 24.3382 136.53 24.1452C135.879 23.7354 135.264 23.4339 134.685 23.241C134.131 23.048 133.431 22.9516 132.587 22.9516C131.382 22.9516 130.405 23.3374 129.657 24.1091C128.934 24.8807 128.572 25.9417 128.572 27.2921C128.572 28.6667 128.946 29.7277 129.694 30.4751C130.441 31.1986 131.466 31.5603 132.768 31.5603C133.54 31.5603 134.239 31.4519 134.866 31.2348C135.493 31.0179 136.132 30.7165 136.783 30.3305C137.121 30.1376 137.362 30.0411 137.507 30.0411C137.724 30.0411 137.917 30.2099 138.085 30.5477L139.713 33.3328C139.834 33.5739 139.894 33.7669 139.894 33.9114C139.894 34.1286 139.749 34.3335 139.46 34.5265C138.447 35.1776 137.338 35.6598 136.132 35.9734C134.95 36.3109 133.528 36.4797 131.864 36.4797Z" fill="#F6F6F6"/>
<path d="M149.066 36.4797C146.799 36.4797 144.978 35.7562 143.604 34.3096C142.253 32.8385 141.578 30.7768 141.578 28.124C141.578 26.0985 142.036 24.326 142.953 22.8069C143.893 21.2877 145.207 20.1181 146.895 19.2983C148.608 18.4542 150.573 18.0322 152.791 18.0322C154.624 18.0322 156.24 18.2372 157.638 18.6471C159.061 19.033 160.363 19.5997 161.545 20.3472V34.8159C161.545 35.2741 161.461 35.5755 161.292 35.7201C161.123 35.8649 160.785 35.9372 160.279 35.9372H156.59C156.324 35.9372 156.119 35.9011 155.974 35.8285C155.83 35.7323 155.709 35.5875 155.613 35.3945L155.143 34.3096C154.443 35.057 153.599 35.5997 152.61 35.9372C151.646 36.2989 150.464 36.4797 149.066 36.4797ZM151.779 31.5603C152.719 31.5603 153.455 31.3312 153.985 30.8733C154.516 30.4151 154.781 29.7639 154.781 28.9198V23.2771C154.323 23.0601 153.744 22.9516 153.045 22.9516C151.767 22.9516 150.742 23.3977 149.97 24.2898C149.223 25.1821 148.849 26.436 148.849 28.0517C148.849 30.3909 149.825 31.5603 151.779 31.5603Z" fill="#F6F6F6"/>
<path d="M184.266 34.5625C184.435 34.7554 184.519 34.9725 184.519 35.2136C184.519 35.4305 184.447 35.6115 184.302 35.7561C184.158 35.8767 183.965 35.9371 183.724 35.9371H178.117C177.779 35.9371 177.526 35.9129 177.357 35.8648C177.213 35.7922 177.056 35.6596 176.887 35.4669L171.968 28.775V34.1284C171.968 34.7554 171.823 35.2136 171.534 35.503C171.244 35.7922 170.75 35.9371 170.051 35.9371H166.542C165.843 35.9371 165.348 35.7922 165.059 35.503C164.794 35.2136 164.661 34.7554 164.661 34.1284V13.1851C164.661 12.5581 164.806 12.0999 165.095 11.8106C165.385 11.4971 165.867 11.3403 166.542 11.3403H170.051C170.75 11.3403 171.244 11.4971 171.534 11.8106C171.823 12.0999 171.968 12.5581 171.968 13.1851V25.3026L176.743 19.0811C176.887 18.8881 177.044 18.7555 177.213 18.6832C177.381 18.6108 177.635 18.5747 177.972 18.5747H183.579C183.82 18.5747 184.001 18.647 184.121 18.7917C184.266 18.9123 184.339 19.0811 184.339 19.2981C184.339 19.5392 184.254 19.7563 184.085 19.9492L177.9 27.0389L184.266 34.5625Z" fill="#F6F6F6"/>
<path d="M196.011 36.4797C193.986 36.4797 192.177 36.1421 190.585 35.467C189.018 34.7917 187.776 33.7788 186.86 32.4286C185.944 31.0782 185.485 29.4263 185.485 27.4731C185.485 24.4105 186.353 22.0714 188.09 20.4557C189.826 18.8401 192.322 18.0322 195.577 18.0322C198.76 18.0322 201.172 18.828 202.811 20.4196C204.476 21.987 205.307 24.1694 205.307 26.9665C205.307 28.1724 204.777 28.7752 203.716 28.7752H192.358C192.358 29.812 192.744 30.608 193.515 31.1625C194.311 31.7171 195.505 31.9944 197.096 31.9944C198.085 31.9944 198.905 31.9101 199.556 31.7413C200.231 31.5484 200.907 31.2711 201.582 30.9094C201.871 30.7888 202.064 30.7284 202.16 30.7284C202.377 30.7284 202.558 30.8733 202.703 31.1625L203.933 33.4774C204.053 33.7187 204.114 33.8995 204.114 34.0201C204.114 34.237 203.969 34.4422 203.68 34.6349C202.691 35.2861 201.57 35.7562 200.316 36.0457C199.062 36.3351 197.627 36.4797 196.011 36.4797ZM198.797 25.1943C198.797 24.2779 198.531 23.5664 198.001 23.0601C197.47 22.5537 196.674 22.3005 195.613 22.3005C194.552 22.3005 193.745 22.5657 193.19 23.0963C192.635 23.6028 192.358 24.3021 192.358 25.1943H198.797Z" fill="#F6F6F6"/>
<path d="M217.705 36.4796C215.68 36.4796 213.762 36.2747 211.954 35.8649C210.145 35.4306 208.687 34.8278 207.577 34.0562C207.167 33.791 206.962 33.5135 206.962 33.2243C206.962 33.0314 207.035 32.8264 207.179 32.6093L208.952 29.788C209.145 29.4986 209.337 29.354 209.53 29.354C209.651 29.354 209.856 29.4383 210.145 29.607C211.038 30.1136 212.05 30.5234 213.184 30.8368C214.317 31.1504 215.438 31.3072 216.548 31.3072C217.681 31.3072 218.513 31.1384 219.044 30.8007C219.598 30.4631 219.875 29.9206 219.875 29.173C219.875 28.4495 219.574 27.8829 218.971 27.473C218.392 27.063 217.295 26.5447 215.68 25.9177C213.244 25.0013 211.339 23.9764 209.964 22.843C208.614 21.6855 207.939 20.1181 207.939 18.1407C207.939 15.7534 208.795 13.9327 210.507 12.6788C212.219 11.4248 214.498 10.7979 217.344 10.7979C219.321 10.7979 221.009 10.9787 222.408 11.3404C223.83 11.678 225.036 12.2085 226.025 12.932C226.435 13.2455 226.64 13.5348 226.64 13.8001C226.64 13.9689 226.567 14.1618 226.422 14.3788L224.65 17.2002C224.433 17.4896 224.24 17.6343 224.071 17.6343C223.951 17.6343 223.746 17.5499 223.457 17.3811C222.058 16.4647 220.394 16.0066 218.465 16.0066C217.428 16.0066 216.632 16.1754 216.077 16.513C215.523 16.8506 215.246 17.4052 215.246 18.1769C215.246 18.7074 215.39 19.1414 215.68 19.479C215.969 19.8166 216.355 20.1181 216.837 20.3833C217.344 20.6245 218.115 20.938 219.152 21.3238L219.839 21.577C221.624 22.2763 223.023 22.9515 224.035 23.6027C225.072 24.2295 225.856 25.0132 226.386 25.9538C226.917 26.87 227.182 28.0275 227.182 29.4263C227.182 31.5725 226.374 33.2846 224.759 34.5625C223.167 35.8407 220.816 36.4796 217.705 36.4796Z" fill="#F6F6F6"/>
<path d="M234.868 35.9371C234.506 35.9371 234.229 35.8768 234.036 35.7561C233.843 35.6357 233.698 35.3944 233.602 35.0327L228.936 19.4066C228.887 19.262 228.863 19.1534 228.863 19.0811C228.863 18.7435 229.104 18.5747 229.587 18.5747H234.361C234.675 18.5747 234.903 18.635 235.049 18.7555C235.194 18.852 235.29 19.0208 235.337 19.2619L237.29 27.473L239.75 20.8535C239.872 20.5641 239.992 20.3712 240.112 20.2748C240.257 20.1542 240.499 20.0939 240.837 20.0939H243.114C243.452 20.0939 243.682 20.1542 243.802 20.2748C243.947 20.3712 244.079 20.5641 244.201 20.8535L246.623 27.473L248.614 19.2619C248.684 19.0208 248.781 18.852 248.903 18.7555C249.022 18.635 249.241 18.5747 249.553 18.5747H254.365C254.846 18.5747 255.088 18.7435 255.088 19.0811C255.088 19.1534 255.065 19.262 255.015 19.4066L250.313 35.0327C250.217 35.3944 250.072 35.6357 249.879 35.7561C249.71 35.8768 249.445 35.9371 249.083 35.9371H245.539C245.201 35.9371 244.947 35.8768 244.778 35.7561C244.609 35.6115 244.466 35.3705 244.344 35.0327L241.957 28.4856L239.57 35.0327C239.473 35.3705 239.328 35.6115 239.135 35.7561C238.966 35.8768 238.715 35.9371 238.377 35.9371H234.868Z" fill="#F6F6F6"/>
<path d="M264.257 36.4797C261.989 36.4797 260.17 35.7562 258.794 34.3096C257.445 32.8385 256.769 30.7768 256.769 28.124C256.769 26.0985 257.226 24.326 258.144 22.8069C259.083 21.2877 260.398 20.1181 262.085 19.2983C263.799 18.4542 265.764 18.0322 267.982 18.0322C269.815 18.0322 271.43 18.2372 272.829 18.6471C274.252 19.033 275.555 19.5997 276.735 20.3472V34.8159C276.735 35.2741 276.651 35.5755 276.482 35.7201C276.313 35.8649 275.977 35.9372 275.47 35.9372H271.78C271.515 35.9372 271.31 35.9011 271.165 35.8285C271.019 35.7323 270.9 35.5875 270.803 35.3945L270.334 34.3096C269.634 35.057 268.789 35.5997 267.801 35.9372C266.836 36.2989 265.656 36.4797 264.257 36.4797ZM266.97 31.5603C267.909 31.5603 268.646 31.3312 269.177 30.8733C269.707 30.4151 269.972 29.7639 269.972 28.9198V23.2771C269.512 23.0601 268.935 22.9516 268.235 22.9516C266.956 22.9516 265.933 23.3977 265.16 24.2898C264.414 25.1821 264.038 26.436 264.038 28.0517C264.038 30.3909 265.017 31.5603 266.97 31.5603Z" fill="#F6F6F6"/>
<path d="M281.733 43.2439C281.033 43.2439 280.54 43.0993 280.249 42.8098C279.984 42.5204 279.853 42.0622 279.853 41.4352V20.7089C280.937 19.9373 282.301 19.2982 283.939 18.7918C285.58 18.2854 287.291 18.0322 289.075 18.0322C296.359 18.0322 300 21.1189 300 27.2921C300 30.0895 299.228 32.3199 297.685 33.984C296.141 35.6478 293.96 36.4797 291.139 36.4797C290.343 36.4797 289.571 36.3832 288.822 36.1903C288.099 35.9975 287.496 35.7323 287.014 35.3945V41.4352C287.014 42.0622 286.869 42.5204 286.58 42.8098C286.291 43.0993 285.796 43.2439 285.097 43.2439H281.733ZM289.582 31.5965C290.62 31.5965 291.392 31.2108 291.897 30.439C292.427 29.6432 292.693 28.5822 292.693 27.256C292.693 25.6886 292.38 24.5912 291.754 23.9643C291.15 23.3133 290.209 22.9877 288.932 22.9877C288.111 22.9877 287.46 23.0963 286.979 23.3133V29.0646C286.979 29.8845 287.207 30.5115 287.665 30.9456C288.125 31.3796 288.763 31.5965 289.582 31.5965Z" fill="#F6F6F6"/>
<path fill-rule="evenodd" clip-rule="evenodd" d="M22.2029 46.6202C15.3503 46.6151 9.83044 44.9708 5.97363 42.0173C2.07055 39.0284 0 34.7867 0 29.9871C0 25.3625 2.06602 22.0279 4.40371 19.7738C6.23574 18.0074 8.2574 16.876 9.66511 16.2253C9.34676 15.2483 8.94961 13.9693 8.59427 12.6483C8.11881 10.8807 7.65237 8.80669 7.65237 7.28689C7.65237 5.48801 8.04457 3.68144 9.10205 2.27766C10.2193 0.794526 11.9013 0 13.9248 0C15.5062 0 16.8489 0.586613 17.9 1.59858C18.9047 2.56588 19.5734 3.85047 20.0351 5.18959C20.8465 7.54266 21.1624 10.4989 21.251 13.4491H23.1892C23.2779 10.4989 23.5936 7.54266 24.4051 5.18959C24.8668 3.85047 25.5354 2.56588 26.5403 1.59858C27.5914 0.586613 28.9339 0 30.5153 0C32.539 0 34.2208 0.794526 35.3382 2.27766C36.3957 3.68144 36.7879 5.48801 36.7879 7.28689C36.7879 8.80669 36.3213 10.8807 35.8459 12.6483C35.4905 13.9693 35.0934 15.2483 34.7751 16.2253C36.1828 16.876 38.2046 18.0074 40.0364 19.7738C42.3742 22.0279 44.4401 25.3625 44.4401 29.9871C44.4401 34.7867 42.3697 39.0284 38.4665 42.0173C34.6098 44.9708 29.0897 46.6151 22.2372 46.6202H22.2029Z" fill="#633001"/>
<path d="M13.9247 1.71094C10.961 1.71094 9.59671 3.94454 9.59671 7.03355C9.59671 9.48887 11.1819 14.4062 11.8322 16.3204C11.9785 16.751 11.7487 17.2227 11.3295 17.3897C8.95415 18.3358 1.94434 21.8001 1.94434 29.7339C1.94434 38.0912 9.0679 44.3927 22.2043 44.4028C22.2095 44.4028 22.2147 44.4026 22.22 44.4026C22.2252 44.4026 22.2304 44.4028 22.2357 44.4028C35.372 44.3927 42.4955 38.0912 42.4955 29.7339C42.4955 21.8001 35.4858 18.3358 33.1105 17.3897C32.6913 17.2227 32.4615 16.751 32.6077 16.3204C33.2582 14.4062 34.8433 9.48887 34.8433 7.03355C34.8433 3.94454 33.4791 1.71094 30.5153 1.71094C26.2492 1.71094 25.1856 7.81576 25.1098 14.3677C25.1048 14.8051 24.7546 15.16 24.3218 15.16H20.1183C19.6853 15.16 19.3352 14.8051 19.3302 14.3677C19.2543 7.81576 18.1909 1.71094 13.9247 1.71094Z" fill="#D1884F"/>
<path d="M22.2357 41.7253C12.5837 41.7253 1.96103 36.5059 1.94438 29.7495C1.94436 29.7598 1.94434 29.7704 1.94434 29.781C1.94434 38.1451 9.07924 44.4499 22.2357 44.4499C35.3922 44.4499 42.527 38.1451 42.527 29.781C42.527 29.7704 42.527 29.7598 42.527 29.7495C42.5103 36.5059 31.8875 41.7253 22.2357 41.7253Z" fill="#FEDC90"/>
<path d="M16.8725 27.6747C16.8725 29.9559 15.8054 31.1439 14.489 31.1439C13.1726 31.1439 12.1055 29.9559 12.1055 27.6747C12.1055 25.3936 13.1726 24.2056 14.489 24.2056C15.8054 24.2056 16.8725 25.3936 16.8725 27.6747Z" fill="#633001"/>
<path d="M32.3657 27.6747C32.3657 29.9559 31.2985 31.1439 29.9821 31.1439C28.6657 31.1439 27.5986 29.9559 27.5986 27.6747C27.5986 25.3936 28.6657 24.2056 29.9821 24.2056C31.2985 24.2056 32.3657 25.3936 32.3657 27.6747Z" fill="#633001"/>
</svg>
