<?xml version="1.0" encoding="utf-8"?>
<!-- Generator: Adobe Illustrator 28.3.0, SVG Export Plug-In . SVG Version: 6.00 Build 0)  -->
<svg version="1.1" id="Слой_1" xmlns="http://www.w3.org/2000/svg" xmlns:xlink="http://www.w3.org/1999/xlink" x="0px" y="0px"
	 viewBox="0 0 763 150" style="enable-background:new 0 0 763 150;" xml:space="preserve">
<style type="text/css">
	.st0{fill:url(#SVGID_1_);}
	.st1{fill-rule:evenodd;clip-rule:evenodd;fill:#050E26;}
	.st2{fill-rule:evenodd;clip-rule:evenodd;fill:#1A38F8;}
	.st3{fill:url(#SVGID_00000088841422848740040910000003540239566177282492_);}
	.st4{fill:#1A38F8;}
</style>
<g>
	<g>
		<g transform="translate(-339 -173) translate(339 173)">
			
				<linearGradient id="SVGID_1_" gradientUnits="userSpaceOnUse" x1="-333.428" y1="-9.8069" x2="-334.2188" y2="-9.8069" gradientTransform="matrix(-56.8875 -56.8875 70.7107 -70.7107 -18221.6602 -19605.6113)">
				<stop  offset="0" style="stop-color:#7EB5FF"/>
				<stop  offset="0.9997" style="stop-color:#1A38F8"/>
			</linearGradient>
			<path class="st0" d="M66,132.4c-4.8-3.8-7.2-7.7-7.2-11.7s1.3-7.4,3.8-10L117,56.3c3.7,3.2,6,6.8,6.7,10.9s-0.4,7.8-3.5,11
				L66,132.4z M46.6,113c-4.8-3.8-7.2-7.7-7.2-11.7s1.3-7.4,3.8-10l54.4-54.4c3.7,3.2,6,6.8,6.7,10.9s-0.4,7.8-3.5,11L46.6,113z
				 M27.2,93.6c-4.8-3.8-7.2-7.7-7.2-11.7s1.3-7.4,3.8-10l54.4-54.4c3.7,3.2,6,6.8,6.7,10.9s-0.4,7.8-3.5,11L27.2,93.6z"/>
		</g>
		<path class="st1" d="M386.7,63.1v5.3l-0.2-0.3c-3.5-4.2-8.3-6.3-14.5-6.3c-6,0-11.2,2.3-15.5,6.9S350,78.9,350,85.6
			c0,6.7,2.1,12.3,6.5,16.9c4.3,4.6,9.5,6.9,15.5,6.9c6.2,0,11-2.1,14.5-6.3l0.2-0.3v5.3h11.6v-45H386.7z M383.1,94.9
			c-2.4,2.4-5.4,3.6-9,3.6s-6.6-1.2-8.9-3.5c-2.3-2.4-3.5-5.5-3.5-9.2s1.2-6.8,3.5-9.2c2.3-2.4,5.3-3.6,8.9-3.6s6.6,1.2,9,3.6
			s3.6,5.4,3.6,9.2C386.7,89.4,385.5,92.5,383.1,94.9z"/>
		<path class="st1" d="M337.8,68.7c-4.3-4.6-9.8-6.9-16.4-6.9c-7,0-12.7,2.3-17.2,6.8s-6.7,10.2-6.7,17c0,6.9,2.3,12.5,6.8,17.1
			c4.5,4.5,10.5,6.8,18,6.8c8.7,0,16-4.2,19.4-9.6c1.2-2.1,1.4-2.5,2.1-5.4h-11.2c-2.3,3-5.7,4.5-10.1,4.5c-6.9,0-11.2-2.8-12.7-8.5
			h34l0.1-0.6c0.2-1.5,0.3-2.8,0.3-4.2C344.2,79,342.1,73.3,337.8,68.7z M309.6,81.5l0.1-0.4c0.7-2.7,2-4.8,4-6.4s4.6-2.4,7.8-2.4
			c2.6,0,5,0.8,7.1,2.3s3.4,3.8,4.1,6.9H309.6z"/>
		<path class="st1" d="M194.9,40.4v55.1c0,0.5,0.4,0.9,0.9,0.9H219v11.9h-34.8c-1,0-1.8-0.8-1.8-1.8V40.4H194.9L194.9,40.4z"/>
		<rect x="225.5" y="63.1" class="st1" width="11.6" height="45.1"/>
		<path class="st1" d="M272.9,61.9c4.9,0,9,1.7,12.2,5c3.2,3.3,4.8,7.9,4.8,13.7v27.7h-11.6V82v-0.4c-0.1-2.8-0.9-5-2.4-6.5
			c-1.6-1.6-3.8-2.4-6.5-2.4c-3,0-5.4,0.9-7.2,2.8c-1.8,1.9-2.7,4.7-2.7,8.4v24.4h-11.6V63.1h11.6v5.1l0.2-0.3
			C262.5,63.9,266.9,61.9,272.9,61.9L272.9,61.9z"/>
		<path class="st1" d="M434.2,62.2v13h-0.4c-3.4-0.3-6.4,0.4-9.1,2.2c-2.8,1.9-4.2,5-4.2,9.3v21.6h-11.6V63.1h11.6v7.8l0.1-0.4
			c1.1-2.7,2.8-4.8,5.2-6.1C428.4,63,431.2,62.2,434.2,62.2z"/>
		<g>
			<path class="st2" d="M717.3,68.7c-4.3-4.6-9.8-6.9-16.4-6.9c-7,0-12.7,2.3-17.2,6.8s-6.7,10.2-6.7,17c0,6.9,2.3,12.5,6.8,17.1
				c4.5,4.5,10.5,6.8,18,6.8c8.7,0,16-4.2,19.4-9.6c1.2-2.1,1.4-2.5,2.1-5.4h-11.2c-2.3,3-5.7,4.5-10.1,4.5
				c-6.9,0-11.2-2.8-12.7-8.5h34l0.1-0.6c0.2-1.5,0.4-2.8,0.4-4.2C723.8,79,721.6,73.3,717.3,68.7z M689.1,81.5l0.1-0.4
				c0.7-2.7,2-4.8,4-6.4s4.6-2.4,7.8-2.4c2.6,0,5,0.8,7.1,2.3s3.4,3.8,4.1,6.9H689.1z"/>
		</g>
		
			<linearGradient id="SVGID_00000063600777580846149370000007638556667985631640_" gradientUnits="userSpaceOnUse" x1="-178.2074" y1="-7.9712" x2="-178.2074" y2="-7.1804" gradientTransform="matrix(7.898973e-16 12.9 -36.176 2.215141e-15 -32.763 2345.0251)">
			<stop  offset="0" style="stop-color:#7EB5FF"/>
			<stop  offset="0.9995" style="stop-color:#1A38F8"/>
		</linearGradient>
		<path style="fill:url(#SVGID_00000063600777580846149370000007638556667985631640_);" d="M257.6,40.7c0,5.9-4.6,10.8-10.4,11.3
			h-0.8H225v-0.4c0-5.9,4.6-10.8,10.4-11.3h0.8h21.4V40.7L257.6,40.7z"/>
		<path class="st2" d="M485.6,107.6c5.5,0,10.1-1.7,13.9-5.1s5.7-7.8,5.7-13.1c0-6.4-2.8-11.2-8.3-14.4c3.9-3.2,5.9-7.4,5.9-12.6
			s-1.8-9.4-5.5-12.7s-8.2-5-13.6-5h-24.8v61.2c0,1,0.8,1.8,1.8,1.8h24.9V107.6z M483.7,70.1h-12.4V56.2h12.4c2,0,3.6,0.7,4.8,2
			c1.3,1.3,1.9,3,1.9,4.9c0,2-0.6,3.6-1.9,4.9C487.2,69.4,485.6,70.1,483.7,70.1L483.7,70.1z M485.6,96h-14.3V81.1h14.3
			c2.1,0,3.8,0.7,5.2,2.1c1.4,1.4,2.1,3.2,2.1,5.3c0,2.2-0.7,3.9-2.1,5.4C489.4,95.3,487.7,96,485.6,96z M550.4,55.4
			c2,0,3.7-0.7,5.1-2.1c1.4-1.4,2.1-3.1,2.1-5s-0.7-3.6-2.1-5c-1.4-1.4-3.1-2.2-5.1-2.2c-1.9,0-3.6,0.7-5,2.2
			c-1.4,1.4-2.1,3.1-2.1,5s0.7,3.6,2.1,5C546.8,54.7,548.5,55.4,550.4,55.4L550.4,55.4z M555.9,107.6v-45h-11.6v45H555.9z
			 M586.1,108.8c6.3,0,11.1-2.2,14.5-6.6v5.3h11.6v-63h-11.6v23.3c-3.4-4.4-8.3-6.6-14.5-6.6c-6,0-11.2,2.3-15.5,6.9
			s-6.4,10.2-6.4,16.9c0,6.7,2.1,12.3,6.4,16.9C574.9,106.6,580.1,108.8,586.1,108.8L586.1,108.8z M588.3,97.8c-3.6,0-6.6-1.2-9-3.5
			c-2.3-2.4-3.5-5.5-3.5-9.2s1.2-6.8,3.5-9.1c2.4-2.4,5.3-3.6,8.9-3.6c3.6,0,6.6,1.2,8.9,3.6c2.3,2.4,3.5,5.4,3.5,9.1
			s-1.2,6.8-3.5,9.1C594.8,96.6,591.9,97.8,588.3,97.8z M523.8,107.6V86.1c0-4.3,1.4-7.4,4.2-9.3s5.9-2.6,9.5-2.2v-13
			c-3.1,0-5.8,0.7-8.3,2.2c-2.5,1.4-4.3,3.6-5.3,6.5v-7.7h-11.6v45L523.8,107.6L523.8,107.6z"/>
		<path class="st4" d="M657.8,68.4v-5.8h11.7v44.2c0,7.1-2.4,12.6-7.1,16.4c-4.7,3.8-10.4,5.7-17.1,5.7c-10.5,0-17.9-3.8-22-11.3
			l10.2-5.8c2.3,4.3,6.3,6.5,12.2,6.5c3.8,0,6.7-1,8.9-3c2.2-2,3.2-4.8,3.2-8.4v-5c-3.5,4.7-8.5,7.1-14.9,7.1
			c-6.6,0-12.1-2.3-16.5-6.9c-4.4-4.7-6.6-10.3-6.6-16.9c0-6.6,2.2-12.2,6.7-16.8s9.9-7,16.4-7C649.3,61.3,654.2,63.7,657.8,68.4z
			 M654.1,94.2c2.4-2.4,3.7-5.4,3.7-9.1c0-3.7-1.2-6.7-3.7-9c-2.4-2.4-5.5-3.6-9.3-3.6c-3.7,0-6.8,1.2-9.4,3.6
			c-2.4,2.3-3.6,5.3-3.6,9c0,3.7,1.2,6.8,3.7,9.1c2.4,2.4,5.6,3.6,9.3,3.6C648.6,97.8,651.7,96.6,654.1,94.2z"/>
	</g>
</g>
</svg>
